<svg width="41" height="32" viewBox="0 0 41 32" fill="none" xmlns="http://www.w3.org/2000/svg">
<path d="M0.5 12.3092C0.5 11.9771 0.634268 11.6372 0.894906 11.3823C1.41618 10.8726 2.26918 10.8726 2.79045 11.3823L20.6323 28.8295L38.2135 11.6372C38.7348 11.1274 39.5878 11.1274 40.109 11.6372C40.6303 12.1469 40.6303 12.9811 40.109 13.4908L21.5801 31.6177C21.0588 32.1274 20.2058 32.1274 19.6845 31.6177L0.894906 13.2437C0.62637 12.9811 0.5 12.649 0.5 12.3092Z" fill="#5039DE"/>
<path d="M0.5 1.30916C0.5 0.977052 0.634268 0.637183 0.894906 0.38231C1.41618 -0.127437 2.26918 -0.127437 2.79045 0.38231L20.6323 17.8295L38.2135 0.637182C38.7348 0.127436 39.5878 0.127436 40.109 0.637182C40.6303 1.14693 40.6303 1.98106 40.109 2.49081L21.5801 20.6177C21.0588 21.1274 20.2058 21.1274 19.6845 20.6177L0.894906 2.24366C0.62637 1.98106 0.5 1.64895 0.5 1.30916Z" fill="#5039DE"/>
</svg>
