<svg width="40" height="40" viewBox="0 0 40 40" fill="none" xmlns="http://www.w3.org/2000/svg">
<path d="M20 39.2C30.6032 39.2 39.2 30.6032 39.2 20C39.2 9.39679 30.6032 0.799988 20 0.799988C9.39685 0.799988 0.800049 9.39679 0.800049 20C0.800049 30.6032 9.39685 39.2 20 39.2ZM14.0688 14.0688L18.8688 9.26879C19.1808 8.95679 19.5904 8.79999 20 8.79999C20.4096 8.79999 20.8192 8.95679 21.1312 9.26879L25.9312 14.0688C26.3888 14.5264 26.5264 15.2144 26.2784 15.8128C26.0304 16.4112 25.4464 16.8 24.8 16.8H21.6V29.6C21.6 30.4848 20.8832 31.2 20 31.2C19.1168 31.2 18.4 30.4848 18.4 29.6V16.8H15.2C14.5536 16.8 13.9696 16.4112 13.7216 15.8128C13.4736 15.2144 13.6112 14.5264 14.0688 14.0688Z" fill="white"/>
</svg>
