<svg width="40" height="28" viewBox="0 0 40 28" fill="none" xmlns="http://www.w3.org/2000/svg">
<path d="M1.82361 3.23336H4.56127C4.87661 3.23336 5.14894 3.43403 5.24927 3.74936L11.3553 24.5184C11.8856 26.3387 13.5769 27.6 15.4833 27.6H31.2069C33.1419 27.6 34.8476 26.2957 35.3636 24.4324L39.0759 10.7727C39.2909 10.013 38.8466 9.22469 38.0726 9.02403C37.9579 8.98103 37.8289 8.96669 37.6999 8.96669H9.76427L8.00127 2.93236C7.54261 1.41303 6.13794 0.366695 4.56127 0.366695H1.86661C1.07827 0.352361 0.418941 0.983028 0.418941 1.78569C0.404607 2.57403 1.03527 3.21903 1.82361 3.23336ZM20.1129 11.8334C22.1769 11.8334 23.3666 13.5964 23.3666 13.5964C23.3666 13.5964 24.5563 11.8334 26.6203 11.8334C28.7846 11.8334 30.5333 13.5534 30.5333 15.6747C30.5333 19.3727 26.1473 22.8987 24.1263 24.4754C24.1119 24.4754 24.1119 24.4754 24.1119 24.4754L24.0976 24.4897C24.0976 24.4897 24.0833 24.4897 24.0833 24.504V24.4897C23.8826 24.6474 23.6246 24.7334 23.3666 24.7334C23.1086 24.7334 22.8506 24.6474 22.6499 24.4897V24.504C22.6356 24.4897 22.6213 24.4754 22.6069 24.461C22.5926 24.461 22.5926 24.461 22.5926 24.461C20.5573 22.8844 16.1999 19.3584 16.1999 15.6747C16.1999 13.5534 17.9486 11.8334 20.1129 11.8334Z" fill="white"/>
</svg>
