<svg width="33" height="33" viewBox="0 0 33 33" fill="none" xmlns="http://www.w3.org/2000/svg">
<g clip-path="url(#clip0_342_1289)">
<path d="M9.625 11H23.375V13.75H9.625V11Z" fill="white"/>
<path d="M24.75 5.5C23.771 5.5 20.229 5.5 19.25 5.5V8.25C20.3115 8.25 23.6885 8.25 24.75 8.25C27.0284 8.25 28.875 10.0966 28.875 12.375C28.875 14.6534 27.0284 16.5 24.75 16.5C23.6885 16.5 20.3115 16.5 19.25 16.5V19.25C20.229 19.25 23.771 19.25 24.75 19.25C28.5464 19.25 31.625 16.1714 31.625 12.375C31.625 8.57862 28.5464 5.5 24.75 5.5ZM8.25 19.25C9.229 19.25 12.771 19.25 13.75 19.25V16.5C12.6885 16.5 9.3115 16.5 8.25 16.5C5.97163 16.5 4.125 14.6534 4.125 12.375C4.125 10.0966 5.97163 8.25 8.25 8.25C9.3115 8.25 12.6885 8.25 13.75 8.25V5.5C12.771 5.5 9.229 5.5 8.25 5.5C4.45363 5.5 1.375 8.57862 1.375 12.375C1.375 16.1714 4.45363 19.25 8.25 19.25Z" fill="white"/>
<path d="M21.9968 31.0588L30.9377 22.1177L32.8823 24.0622L23.9414 33.0033L21.9968 31.0588Z" fill="white"/>
<path d="M21.9998 23.9446L23.9443 22L33.0002 31.0556L31.0557 33.0002L21.9998 23.9446Z" fill="white"/>
</g>
<defs>
<clipPath id="clip0_342_1289">
<rect width="33" height="33" fill="white"/>
</clipPath>
</defs>
</svg>
