<svg width="34" height="39" viewBox="0 0 34 39" fill="none" xmlns="http://www.w3.org/2000/svg">
<path d="M17 0C16.172 0 15.5 0.672 15.5 1.5V7.5H18.5V1.5C18.5 0.672 17.828 0 17 0ZM30.5 7.5H18.5V26.379L21.9395 22.9395C22.526 22.353 23.474 22.353 24.0605 22.9395C24.647 23.526 24.647 24.474 24.0605 25.0605L18.0605 31.0605C17.768 31.353 17.384 31.5 17 31.5C16.616 31.5 16.232 31.353 15.9395 31.0605L9.9395 25.0605C9.353 24.474 9.353 23.526 9.9395 22.9395C10.526 22.353 11.474 22.353 12.0605 22.9395L15.5 26.379V7.5H3.5C1.8425 7.5 0.5 8.8425 0.5 10.5V36C0.5 37.6575 1.8425 39 3.5 39H30.5C32.1575 39 33.5 37.6575 33.5 36V10.5C33.5 8.8425 32.1575 7.5 30.5 7.5Z" fill="white"/>
</svg>
