<svg width="827" height="500" viewBox="0 0 627 387" fill="none" xmlns="http://www.w3.org/2000/svg">
<path opacity="0.3" d="M493.974 26.4155C559.559 47.6271 610.409 107.208 623.639 181.72C634.76 244.532 616.291 321.753 508.529 357.595C398.538 394.178 90.9686 411.778 33.775 309.994C-23.4187 208.21 -11.3737 77.5081 105.904 31.1916C188.112 -1.29817 365.876 -14.9844 493.974 26.4155Z" fill="url(#paint0_linear_26_67)"/>
<path d="M539.183 122.4C539.173 132.11 535.309 141.419 528.441 148.285C521.572 155.151 512.26 159.013 502.546 159.023H104.499C94.7825 159.023 85.4637 155.165 78.593 148.297C71.7222 141.428 67.8623 132.113 67.8623 122.4C67.8623 112.686 71.7222 103.371 78.593 96.5027C85.4637 89.6344 94.7825 85.7759 104.499 85.7759H502.546C512.263 85.7759 521.582 89.6344 528.452 96.5027C535.323 103.371 539.183 112.686 539.183 122.4Z" fill="#E6E6E6"/>
<path d="M554.059 121.115C554.048 130.825 550.185 140.135 543.316 147.001C536.448 153.867 527.135 157.729 517.422 157.739H119.375C109.658 157.739 100.339 153.881 93.4686 147.012C86.5978 140.144 82.7379 130.829 82.7379 121.115C82.7379 111.402 86.5978 102.087 93.4686 95.2185C100.339 88.3503 109.658 84.4917 119.375 84.4917H517.422C527.139 84.4917 536.457 88.3503 543.328 95.2185C550.199 102.087 554.059 111.402 554.059 121.115Z" fill="#E6E6E6"/>
<path d="M465.709 160.308C486.652 160.308 503.63 143.336 503.63 122.4C503.63 101.464 486.652 84.4917 465.709 84.4917C444.765 84.4917 427.787 101.464 427.787 122.4C427.787 143.336 444.765 160.308 465.709 160.308Z" fill="#FFD200"/>
<path d="M241.451 53.9885C241.446 57.8349 239.915 61.5223 237.194 64.2421C234.473 66.9619 230.784 68.4922 226.937 68.4975H69.2475C65.3981 68.4975 61.7063 66.9689 58.9844 64.248C56.2624 61.527 54.7333 57.8366 54.7333 53.9885C54.7333 50.1405 56.2624 46.4501 58.9844 43.7291C61.7063 41.0081 65.3981 39.4795 69.2475 39.4795H226.937C230.786 39.4795 234.478 41.0081 237.2 43.7291C239.922 46.4501 241.451 50.1405 241.451 53.9885Z" fill="#E6E6E6"/>
<path d="M241.451 53.9885C241.446 57.8349 239.915 61.5223 237.194 64.2421C234.473 66.9619 230.784 68.4922 226.937 68.4975H69.2475C65.3981 68.4975 61.7063 66.9689 58.9844 64.248C56.2624 61.527 54.7333 57.8366 54.7333 53.9885C54.7333 50.1405 56.2624 46.4501 58.9844 43.7291C61.7063 41.0081 65.3981 39.4795 69.2475 39.4795H226.937C230.786 39.4795 234.478 41.0081 237.2 43.7291C239.922 46.4501 241.451 50.1405 241.451 53.9885Z" fill="#E6E6E6"/>
<path d="M183.012 53.9885C183.007 57.8349 181.476 61.5222 178.756 64.2421C176.035 66.9619 172.346 68.4922 168.498 68.4975H69.2475C65.3981 68.4975 61.7063 66.9689 58.9844 64.2479C56.2624 61.527 54.7333 57.8365 54.7333 53.9885C54.7333 50.1405 56.2624 46.45 58.9844 43.7291C61.7063 41.0081 65.3981 39.4795 69.2475 39.4795H168.418C170.331 39.4689 172.227 39.8364 173.997 40.5608C175.767 41.2852 177.377 42.3522 178.733 43.7006C180.089 45.0489 181.166 46.652 181.9 48.4175C182.634 50.1831 183.013 52.0764 183.012 53.9885Z" fill="#C9C9C9"/>
<path d="M596.979 208.009C596.974 211.855 595.443 215.543 592.722 218.263C590.001 220.982 586.313 222.513 582.465 222.518H424.796C420.946 222.518 417.255 220.989 414.533 218.268C411.811 215.547 410.282 211.857 410.282 208.009C410.282 204.161 411.811 200.471 414.533 197.75C417.255 195.029 420.946 193.5 424.796 193.5H582.505C586.347 193.511 590.029 195.044 592.742 197.764C595.455 200.484 596.979 204.168 596.979 208.009Z" fill="#E6E6E6"/>
<path d="M596.979 208.009C596.974 211.855 595.443 215.543 592.722 218.263C590.001 220.982 586.313 222.513 582.465 222.518H424.796C420.946 222.518 417.255 220.989 414.533 218.268C411.811 215.547 410.282 211.857 410.282 208.009C410.282 204.161 411.811 200.471 414.533 197.75C417.255 195.029 420.946 193.5 424.796 193.5H582.505C586.347 193.511 590.029 195.044 592.742 197.764C595.455 200.484 596.979 204.168 596.979 208.009Z" fill="#E6E6E6"/>
<path d="M497.467 208.009C497.462 211.855 495.931 215.543 493.21 218.263C490.49 220.982 486.801 222.513 482.953 222.518H424.736C420.886 222.518 417.194 220.989 414.472 218.268C411.751 215.547 410.221 211.857 410.221 208.009C410.221 204.161 411.751 200.471 414.472 197.75C417.194 195.029 420.886 193.5 424.736 193.5H482.953C486.803 193.5 490.494 195.029 493.216 197.75C495.938 200.471 497.467 204.161 497.467 208.009Z" fill="#C9C9C9"/>
<path d="M64.57 358.317C64.57 358.317 56.4196 360.324 55.0344 367.307C53.6492 374.291 46.5226 375.334 45.3984 368.853C44.2742 362.371 54.2916 346.778 54.2916 346.778L67.2199 348.785L64.57 358.317Z" fill="#5039DE"/>
<path d="M418.251 119.65L386.272 152.983C376.515 163.145 363.865 170.059 350.041 172.784C336.217 175.509 321.889 173.914 309.003 168.214L273.611 152.562L238.058 213.568L289.51 221.274C311.666 224.594 334.309 221.526 354.781 212.43C375.253 203.333 392.703 188.586 405.082 169.92L429.935 132.454C425.92 128.306 422.025 124.039 418.251 119.65Z" fill="#5039DE"/>
<path opacity="0.46" d="M418.251 119.65L386.272 152.983C376.515 163.145 363.865 170.059 350.041 172.784C336.217 175.509 321.889 173.914 309.003 168.214L273.611 152.562L238.058 213.568L289.51 221.274C311.666 224.594 334.309 221.526 354.781 212.43C375.253 203.333 392.703 188.586 405.082 169.92L429.935 132.454C425.92 128.306 422.025 124.039 418.251 119.65Z" fill="white"/>
<path d="M171.67 350.932C171.67 350.932 165.367 356.471 167.414 363.334C169.462 370.197 163.66 374.472 159.625 369.174C155.59 363.876 157.176 345.474 157.176 345.474L169.542 341.219L171.67 350.932Z" fill="#5039DE"/>
<path d="M243.719 284.768L187.509 324.904C158.479 345.595 124.078 357.443 88.4592 359.019L65.1522 360.063V347.36L102.813 334.657C117.223 329.813 130.289 321.646 140.955 310.816L178.194 272.928L243.719 284.768Z" fill="#24285B"/>
<path opacity="0.08" d="M243.719 284.768L187.509 324.904C158.479 345.595 124.078 357.443 88.4592 359.019L65.1522 360.063V347.36L102.813 334.657C117.223 329.813 130.289 321.646 140.955 310.816L178.194 272.928L243.719 284.768Z" fill="black"/>
<path d="M282.263 108.292C284.433 112.914 285.966 117.808 286.82 122.841C286.944 124.062 286.578 125.283 285.803 126.234C285.027 127.186 283.906 127.792 282.685 127.918C280.761 128.216 278.791 127.954 277.012 127.164C275.232 126.374 273.717 125.09 272.647 123.463L267.287 116.881C266.36 115.451 265.898 113.768 265.967 112.065C266.035 110.361 266.63 108.721 267.669 107.369C271.162 102.091 280.135 103.195 282.263 108.292Z" fill="#F4A28C"/>
<path d="M271.082 117.965L264.457 147.324L280.898 149.812L279.112 127.457L271.082 117.965Z" fill="#F4A28C"/>
<path d="M280.256 109.436C277.635 110.531 274.892 111.305 272.085 111.744C273.284 112.634 274.198 113.853 274.715 115.254C275.232 116.655 275.33 118.175 274.996 119.63C274.693 121.048 273.907 122.315 272.771 123.216C271.636 124.117 270.222 124.594 268.773 124.567L264.758 113.45C264.142 111.876 263.963 110.165 264.239 108.498C264.514 106.831 265.235 105.27 266.324 103.978C267.273 102.864 268.292 101.811 269.375 100.827C272.085 98.3786 277.546 98.8201 279.613 95.5691C279.823 95.2484 280.112 94.9876 280.453 94.8125C280.793 94.6373 281.173 94.5537 281.556 94.5698C281.939 94.586 282.311 94.7015 282.635 94.9048C282.96 95.1081 283.226 95.3924 283.408 95.7296C285.134 98.9003 286.479 104.439 282.605 107.951C281.907 108.57 281.114 109.072 280.256 109.436Z" fill="#24285B"/>
<path d="M275.819 119.049C275.819 119.049 274.534 115.757 272.125 116.921C269.716 118.085 271.563 122.942 275.117 122.059L275.819 119.049Z" fill="#F4A28C"/>
<path d="M284.451 113.65L288.085 116.098C288.292 116.233 288.462 116.418 288.58 116.635C288.698 116.852 288.76 117.096 288.76 117.343C288.76 117.59 288.698 117.833 288.58 118.05C288.462 118.267 288.292 118.452 288.085 118.587L285.014 120.413L284.451 113.65Z" fill="#F4A28C"/>
<path opacity="0.31" d="M278.81 128.139C276.695 127.918 274.692 127.08 273.049 125.731C273.049 125.731 272.667 131.27 279.433 135.765L278.81 128.139Z" fill="#CE8172"/>
<path d="M280.898 149.812L264.457 147.344C264.457 147.344 180.644 123.724 168.438 173.994C156.232 224.264 157.658 257.456 157.658 257.456L214.209 284.989C214.209 284.989 369.891 221.595 280.898 149.812Z" fill="#5039DE"/>
<path opacity="0.08" d="M244.402 181.239C244.402 181.239 253.516 203.935 219.168 211.34C184.819 218.745 184.839 241.803 207.343 243.208C229.847 244.613 263.092 232.391 262.489 258.72C262.489 258.72 236.392 276.661 214.209 285.049L157.658 257.516V254.025L154.747 204.939L184.137 176.723L244.402 181.239Z" fill="black"/>
<path d="M247.714 166.589C246.551 159.058 242.497 152.276 236.414 147.683C230.332 143.089 222.698 141.046 215.133 141.986C193.552 144.434 160.93 154.027 145.733 188.644C122.065 242.666 136.579 276.38 249.501 243.128L246.45 230.465C246.45 230.465 170.164 239.576 174.722 215.575C178.576 195.326 252.673 202.852 247.714 166.589Z" fill="#5039DE"/>
<path opacity="0.46" d="M247.714 166.589C246.551 159.058 242.497 152.276 236.414 147.683C230.332 143.089 222.698 141.046 215.133 141.986C193.552 144.434 160.93 154.027 145.733 188.644C122.065 242.666 136.579 276.38 249.501 243.128L246.45 230.465C246.45 230.465 170.164 239.576 174.722 215.575C178.576 195.326 252.673 202.852 247.714 166.589Z" fill="white"/>
<path d="M246.429 230.465C246.429 230.465 256.949 220.13 264.196 221.655C271.443 223.18 267.267 238.231 249.481 243.128L246.429 230.465Z" fill="#F4A28C"/>
<path d="M157.658 257.436C157.658 257.436 267.307 271.223 262.51 298.695C257.712 326.168 170.727 353.621 170.727 353.621L163.841 339.995L220.312 299.558C220.312 299.558 124.795 322.215 157.658 257.436Z" fill="#24285B"/>
<path d="M429.935 132.454C429.935 132.454 438.065 119.51 437.543 115.416C437.021 111.322 432.424 116.339 432.424 116.339C432.424 116.339 437.885 107.389 435.155 101.931C432.424 96.4722 424.956 112.667 418.251 119.651L429.935 132.454Z" fill="#F4A28C"/>
<defs>
<linearGradient id="paint0_linear_26_67" x1="-34.0504" y1="149.833" x2="1033.65" y2="159.531" gradientUnits="userSpaceOnUse">
<stop stop-color="#3940DE"/>
<stop offset="0.677083" stop-color="#8F00FF"/>
<stop offset="1" stop-color="#9539DE"/>
</linearGradient>
</defs>
</svg>
