<svg width="41" height="31" viewBox="0 0 41 31" fill="none" xmlns="http://www.w3.org/2000/svg">
<path d="M38.1667 13.2917H19.3958C18.1757 13.2917 17.1875 14.2799 17.1875 15.5C17.1875 16.7201 18.1757 17.7083 19.3958 17.7083H38.1667C39.3868 17.7083 40.375 16.7201 40.375 15.5C40.375 14.2799 39.3868 13.2917 38.1667 13.2917ZM38.1667 0.0416679H2.83334C1.61323 0.0416679 0.625 1.0299 0.625 2.25C0.625 3.47011 1.61323 4.45833 2.83334 4.45833H38.1667C39.3868 4.45833 40.375 3.47011 40.375 2.25C40.375 1.0299 39.3868 0.0416679 38.1667 0.0416679ZM38.1667 26.5417H9.45833C8.23823 26.5417 7.25 27.5299 7.25 28.75C7.25 29.9701 8.23823 30.9583 9.45833 30.9583H38.1667C39.3868 30.9583 40.375 29.9701 40.375 28.75C40.375 27.5299 39.3868 26.5417 38.1667 26.5417Z" fill="white"/>
</svg>
