<svg width="26" height="26" viewBox="0 0 26 26" fill="none" xmlns="http://www.w3.org/2000/svg">
<path d="M13 0.25C11.4971 0.25 10.0558 0.847022 8.99306 1.90973C7.93036 2.97243 7.33333 4.41377 7.33333 5.91667C7.33333 7.41956 7.93036 8.8609 8.99306 9.9236C10.0558 10.9863 11.4971 11.5833 13 11.5833C14.5029 11.5833 15.9442 10.9863 17.0069 9.9236C18.0696 8.8609 18.6667 7.41956 18.6667 5.91667C18.6667 4.41377 18.0696 2.97243 17.0069 1.90973C15.9442 0.847022 14.5029 0.25 13 0.25ZM13 15.8333C8.74433 15.8333 0.25 17.9697 0.25 22.2083V24.3333C0.25 25.1153 0.884667 25.75 1.66667 25.75H24.3333C25.1153 25.75 25.75 25.1153 25.75 24.3333V22.2083C25.75 17.9697 17.2557 15.8333 13 15.8333Z" fill="white"/>
</svg>
