<svg width="417" height="48" viewBox="0 0 417 48" fill="none" xmlns="http://www.w3.org/2000/svg">
<path d="M0.496 2.448V0.447997H-1.504V2.448H0.496ZM23.728 5.472L22.4006 6.96798L22.4065 6.97325L22.4125 6.97847L23.728 5.472ZM23.728 22.176L22.4246 20.659L22.414 20.6682L23.728 22.176ZM7.792 25.104V23.104H5.792V25.104H7.792ZM7.792 36V38H9.792V36H7.792ZM0.496 36H-1.504V38H0.496V36ZM18.064 9.696L16.9106 11.3299L16.9217 11.3378L16.9329 11.3455L18.064 9.696ZM7.792 8.544V6.544H5.792V8.544H7.792ZM7.792 19.008H5.792V21.008H7.792V19.008ZM0.496 4.448H14.608V0.447997H0.496V4.448ZM14.608 4.448C18.0554 4.448 20.5805 5.35297 22.4006 6.96798L25.0554 3.97602C22.3315 1.55902 18.7766 0.447997 14.608 0.447997V4.448ZM22.4125 6.97847C24.1712 8.51423 25.136 10.6885 25.136 13.776H29.136C29.136 9.75946 27.8288 6.39777 25.0435 3.96553L22.4125 6.97847ZM25.136 13.776C25.136 16.9797 24.159 19.1689 22.4247 20.659L25.0313 23.693C27.841 21.2791 29.136 17.8683 29.136 13.776H25.136ZM22.414 20.6682C20.6341 22.2192 18.1095 23.104 14.608 23.104V27.104C18.7865 27.104 22.3419 26.0368 25.042 23.6838L22.414 20.6682ZM14.608 23.104H7.792V27.104H14.608V23.104ZM5.792 25.104V36H9.792V25.104H5.792ZM7.792 34H0.496V38H7.792V34ZM2.496 36V2.448H-1.504V36H2.496ZM13.552 21.008C15.8497 21.008 17.9459 20.5297 19.4868 19.2277C21.0923 17.8711 21.744 15.9249 21.744 13.776H17.744C17.744 15.1151 17.3637 15.7849 16.9052 16.1723C16.3821 16.6143 15.3823 17.008 13.552 17.008V21.008ZM21.744 13.776C21.744 11.4736 21.0719 9.33354 19.1951 8.04654L16.9329 11.3455C17.2961 11.5945 17.744 12.1744 17.744 13.776H21.744ZM19.2174 8.06206C17.6728 6.97175 15.7102 6.544 13.552 6.544V10.544C15.2338 10.544 16.2792 10.8842 16.9106 11.3299L19.2174 8.06206ZM13.552 6.544H7.792V10.544H13.552V6.544ZM5.792 8.544V19.008H9.792V8.544H5.792ZM7.792 21.008H13.552V17.008H7.792V21.008ZM33.439 35.232L32.5556 37.0263L32.5721 37.0345L32.5887 37.0423L33.439 35.232ZM28.591 30.96L26.8786 31.9933L26.8891 32.0108L26.9 32.028L28.591 30.96ZM28.591 18.096L26.8917 17.0413L26.8851 17.0519L26.8786 17.0627L28.591 18.096ZM33.439 13.776L32.5664 11.9763L32.5556 11.9817L33.439 13.776ZM48.031 13.776L47.1476 15.5704L47.1585 15.5756L48.031 13.776ZM52.879 18.096L51.1666 19.1293L51.1731 19.1401L51.1797 19.1507L52.879 18.096ZM52.879 30.96L51.1797 29.9053L51.1747 29.9135L52.879 30.96ZM48.079 35.232L48.9399 37.0372L48.9512 37.0318L48.9624 37.0263L48.079 35.232ZM45.439 29.28L46.8725 30.6747L46.8817 30.6652L46.8909 30.6555L45.439 29.28ZM45.439 19.68L43.9861 21.0544L44.0051 21.0746L44.0248 21.0942L45.439 19.68ZM36.079 19.68L37.4932 21.0942L37.5029 21.0845L37.5125 21.0747L36.079 19.68ZM36.079 29.28L34.6271 30.6555L34.6457 30.6751L34.6648 30.6942L36.079 29.28ZM40.783 34.72C38.2369 34.72 36.0888 34.267 34.2893 33.4217L32.5887 37.0423C35.0132 38.181 37.7611 38.72 40.783 38.72V34.72ZM34.3224 33.4377C32.5477 32.564 31.2222 31.3807 30.282 29.892L26.9 32.028C28.2638 34.1873 30.1703 35.852 32.5556 37.0263L34.3224 33.4377ZM30.3034 29.9267C29.3962 28.4233 28.911 26.6306 28.911 24.48H24.911C24.911 27.2574 25.5458 29.7847 26.8786 31.9933L30.3034 29.9267ZM28.911 24.48C28.911 22.404 29.3913 20.6408 30.3034 19.1293L26.8786 17.0627C25.5507 19.2632 24.911 21.756 24.911 24.48H28.911ZM30.2903 19.1507C31.2326 17.6325 32.5567 16.4396 34.3224 15.5703L32.5556 11.9817C30.1613 13.1604 28.2534 14.8475 26.8917 17.0413L30.2903 19.1507ZM34.3115 15.5756C36.1055 14.7058 38.2455 14.24 40.783 14.24V10.24C37.7525 10.24 34.9965 10.7982 32.5665 11.9764L34.3115 15.5756ZM40.783 14.24C43.2855 14.24 45.3893 14.7047 47.1476 15.5703L48.9144 11.9817C46.5127 10.7993 43.7845 10.24 40.783 10.24V14.24ZM47.1585 15.5756C48.9523 16.4454 50.2631 17.6321 51.1666 19.1293L54.5914 17.0627C53.2549 14.8479 51.3337 13.1546 48.9035 11.9764L47.1585 15.5756ZM51.1797 19.1507C52.116 20.6592 52.607 22.4147 52.607 24.48H56.607C56.607 21.7453 55.946 19.2448 54.5783 17.0413L51.1797 19.1507ZM52.607 24.48C52.607 26.6202 52.1108 28.4051 51.1797 29.9053L54.5783 32.0147C55.9512 29.8029 56.607 27.2678 56.607 24.48H52.607ZM51.1747 29.9135C50.2687 31.389 48.9662 32.566 47.1956 33.4377L48.9624 37.0263C51.3518 35.85 53.2493 34.179 54.5833 32.0065L51.1747 29.9135ZM47.2181 33.4268C45.4571 34.2666 43.3301 34.72 40.783 34.72V38.72C43.8039 38.72 46.5409 38.1814 48.9399 37.0372L47.2181 33.4268ZM40.783 33.056C43.169 33.056 45.276 32.3156 46.8725 30.6747L44.0056 27.8853C43.298 28.6124 42.301 29.056 40.783 29.056V33.056ZM46.8909 30.6555C48.4584 29.0009 49.167 26.8751 49.167 24.48H45.167C45.167 26.0529 44.7236 27.1271 43.9871 27.9045L46.8909 30.6555ZM49.167 24.48C49.167 22.0453 48.471 19.8836 46.8532 18.2658L44.0248 21.0942C44.711 21.7804 45.167 22.8187 45.167 24.48H49.167ZM46.8919 18.3056C45.3142 16.6377 43.1883 15.904 40.783 15.904V19.904C42.3457 19.904 43.3238 20.3543 43.9861 21.0544L46.8919 18.3056ZM40.783 15.904C38.3757 15.904 36.2483 16.638 34.6455 18.2853L37.5125 21.0747C38.2137 20.354 39.2223 19.904 40.783 19.904V15.904ZM34.6648 18.2658C33.047 19.8836 32.351 22.0453 32.351 24.48H36.351C36.351 22.8187 36.807 21.7804 37.4932 21.0942L34.6648 18.2658ZM32.351 24.48C32.351 26.8751 33.0596 29.0009 34.6271 30.6555L37.5309 27.9045C36.7944 27.1271 36.351 26.0529 36.351 24.48H32.351ZM34.6648 30.6942C36.2861 32.3155 38.3955 33.056 40.783 33.056V29.056C39.2665 29.056 38.2399 28.6125 37.4932 27.8658L34.6648 30.6942ZM58.6679 12.96V10.96H56.6679V12.96H58.6679ZM65.6759 12.96H67.6759V10.96H65.6759V12.96ZM65.6759 15.504H63.6759V20.1003L67.0391 16.9674L65.6759 15.504ZM80.6519 13.776L79.6728 15.52L79.6909 15.5301L79.7091 15.5399L80.6519 13.776ZM84.9719 18.048L83.2207 19.0142L83.2243 19.0206L83.2279 19.0271L84.9719 18.048ZM84.9719 30.816L86.723 31.7822L84.9719 30.816ZM80.6519 35.184L81.631 36.928L81.6409 36.9223L80.6519 35.184ZM65.9159 33.936L67.2329 32.4308L63.9159 29.5285V33.936H65.9159ZM65.9159 46.512V48.512H67.9159V46.512H65.9159ZM58.6679 46.512H56.6679V48.512H58.6679V46.512ZM77.2439 29.232L75.8481 27.7995L75.8388 27.8086L75.8297 27.8178L77.2439 29.232ZM77.2439 19.68L75.8486 21.1129L75.8579 21.122L75.8674 21.1309L77.2439 19.68ZM68.4599 19.104L67.3402 17.4468V17.4468L68.4599 19.104ZM65.9159 22.272L64.0527 21.5449L63.9159 21.8956V22.272H65.9159ZM65.9159 26.64H63.9159V26.9864L64.0324 27.3127L65.9159 26.64ZM68.4119 29.856L67.2922 31.5132L67.3024 31.5201L67.3126 31.5268L68.4119 29.856ZM58.6679 14.96H65.6759V10.96H58.6679V14.96ZM63.6759 12.96V15.504H67.6759V12.96H63.6759ZM67.0391 16.9674C68.9765 15.1627 71.3576 14.24 74.3159 14.24V10.24C70.4261 10.24 67.0472 11.4933 64.3127 14.0406L67.0391 16.9674ZM74.3159 14.24C76.4241 14.24 78.1895 14.6872 79.6728 15.52L81.6309 12.032C79.4663 10.8168 77.0076 10.24 74.3159 10.24V14.24ZM79.7091 15.5399C81.2216 16.3483 82.382 17.494 83.2207 19.0142L86.723 17.0818C85.5137 14.89 83.7941 13.1877 81.5946 12.0121L79.7091 15.5399ZM83.2279 19.0271C84.0585 20.5066 84.5079 22.2867 84.5079 24.432H88.5079C88.5079 21.7133 87.9332 19.2374 86.7158 17.0689L83.2279 19.0271ZM84.5079 24.432C84.5079 26.5394 84.0609 28.327 83.2207 29.8498L86.723 31.7822C87.9308 29.593 88.5079 27.1246 88.5079 24.432H84.5079ZM83.2207 29.8498C82.3761 31.3806 81.201 32.5705 79.6628 33.4457L81.6409 36.9223C83.8148 35.6855 85.5196 33.9634 86.723 31.7822L83.2207 29.8498ZM79.6728 33.44C78.1895 34.2728 76.4241 34.72 74.3159 34.72V38.72C77.0076 38.72 79.4663 38.1432 81.6309 36.928L79.6728 33.44ZM74.3159 34.72C72.883 34.72 71.5411 34.5098 70.2799 34.0985L69.0398 37.9015C70.7226 38.4502 72.4847 38.72 74.3159 38.72V34.72ZM70.2799 34.0985C69.0294 33.6908 68.0275 33.1262 67.2329 32.4308L64.5989 35.4412C65.8522 36.5378 67.3464 37.3493 69.0398 37.9015L70.2799 34.0985ZM63.9159 33.936V46.512H67.9159V33.936H63.9159ZM65.9159 44.512H58.6679V48.512H65.9159V44.512ZM60.6679 46.512V12.96H56.6679V46.512H60.6679ZM72.4919 33.056C74.8963 33.056 77.0152 32.2891 78.6581 30.6462L75.8297 27.8178C75.0405 28.6069 73.9915 29.056 72.4919 29.056V33.056ZM78.6396 30.6645C80.3288 29.0186 81.1159 26.8738 81.1159 24.432H77.1159C77.1159 25.9582 76.655 27.0134 75.8481 27.7995L78.6396 30.6645ZM81.1159 24.432C81.1159 21.9912 80.3285 19.8496 78.6204 18.2291L75.8674 21.1309C76.6552 21.8784 77.1159 22.9048 77.1159 24.432H81.1159ZM78.6391 18.2471C76.9932 16.6445 74.8806 15.904 72.4919 15.904V19.904C74.0072 19.904 75.0625 20.3475 75.8486 21.1129L78.6391 18.2471ZM72.4919 15.904C70.6109 15.904 68.8727 16.4113 67.3402 17.4468L69.5796 20.7612C70.415 20.1967 71.3648 19.904 72.4919 19.904V15.904ZM67.3402 17.4468C65.8249 18.4706 64.7146 19.8487 64.0527 21.5449L67.779 22.9991C68.1411 22.0713 68.7268 21.3374 69.5796 20.7612L67.3402 17.4468ZM63.9159 22.272V26.64H67.9159V22.272H63.9159ZM64.0324 27.3127C64.6558 29.0583 65.7557 30.475 67.2922 31.5132L69.5316 28.1988C68.7 27.637 68.1359 26.9097 67.7994 25.9673L64.0324 27.3127ZM67.3126 31.5268C68.8663 32.549 70.6109 33.056 72.4919 33.056V29.056C71.3648 29.056 70.3894 28.763 69.5111 28.1852L67.3126 31.5268ZM92.7018 34.176L91.2206 35.52L91.2269 35.5269L91.2332 35.5337L92.7018 34.176ZM90.3497 12.96V10.96H88.3497V12.96H90.3497ZM97.5977 12.96H99.5977V10.96H97.5977V12.96ZM105.182 30.192L104.224 28.4362L105.182 30.192ZM107.822 27.6L109.528 28.6429L109.822 28.1627V27.6H107.822ZM107.822 12.96V10.96H105.822V12.96H107.822ZM115.07 12.96H117.07V10.96H115.07V12.96ZM115.07 36V38H117.07V36H115.07ZM108.062 36H106.062V38H108.062V36ZM108.062 33.216H110.062V27.8461L106.549 31.9077L108.062 33.216ZM104.318 35.856L103.589 33.9935L103.582 33.9963L103.575 33.999L104.318 35.856ZM99.7578 34.72C96.9721 34.72 95.2388 33.974 94.1703 32.8183L91.2332 35.5337C93.3007 37.77 96.2714 38.72 99.7578 38.72V34.72ZM94.1829 32.832C93.0187 31.5491 92.3497 29.7781 92.3497 27.312H88.3497C88.3497 30.5419 89.2488 33.3469 91.2206 35.52L94.1829 32.832ZM92.3497 27.312V12.96H88.3497V27.312H92.3497ZM90.3497 14.96H97.5977V10.96H90.3497V14.96ZM95.5977 12.96V26.544H99.5977V12.96H95.5977ZM95.5977 26.544C95.5977 28.3195 96.0054 30.0239 97.1739 31.2865C98.3696 32.5783 100.032 33.056 101.774 33.056V29.056C100.731 29.056 100.306 28.7817 100.11 28.5695C99.8861 28.3281 99.5977 27.7765 99.5977 26.544H95.5977ZM101.774 33.056C103.321 33.056 104.786 32.6859 106.139 31.9478L104.224 28.4362C103.465 28.8501 102.659 29.056 101.774 29.056V33.056ZM106.139 31.9478C107.54 31.1841 108.664 30.0567 109.528 28.6429L106.115 26.5571C105.571 27.4473 104.936 28.0479 104.224 28.4362L106.139 31.9478ZM109.822 27.6V12.96H105.822V27.6H109.822ZM107.822 14.96H115.07V10.96H107.822V14.96ZM113.07 12.96V36H117.07V12.96H113.07ZM115.07 34H108.062V38H115.07V34ZM110.062 36V33.216H106.062V36H110.062ZM106.549 31.9077C105.74 32.8436 104.762 33.5346 103.589 33.9935L105.047 37.7185C106.818 37.0253 108.336 35.9564 109.574 34.5243L106.549 31.9077ZM103.575 33.999C102.379 34.4776 101.112 34.72 99.7578 34.72V38.72C101.604 38.72 103.377 38.3865 105.061 37.713L103.575 33.999ZM120.121 0.527999V-1.472H118.121V0.527999H120.121ZM127.369 0.527999H129.369V-1.472H127.369V0.527999ZM127.369 36V38H129.369V36H127.369ZM120.121 36H118.121V38H120.121V36ZM120.121 2.528H127.369V-1.472H120.121V2.528ZM125.369 0.527999V36H129.369V0.527999H125.369ZM127.369 34H120.121V38H127.369V34ZM122.121 36V0.527999H118.121V36H122.121ZM134.082 34.608L132.816 36.1559L132.831 36.1684L132.847 36.1806L134.082 34.608ZM133.986 22.8L135.264 24.3388L135.272 24.3318L135.281 24.3246L133.986 22.8ZM145.122 21.072L144.673 23.0208L145.122 21.072ZM148.434 22.272L147.493 24.0367L150.434 25.6053V22.272H148.434ZM146.898 18.528L145.801 20.2001L146.898 18.528ZM134.418 19.104H132.418V22.1857L135.233 20.9306L134.418 19.104ZM134.418 13.824L133.617 11.9917L132.418 12.516V13.824H134.418ZM138.402 12.72L138.75 14.6896L138.768 14.6863L138.787 14.6826L138.402 12.72ZM152.61 14.832L151.321 16.3606L151.328 16.3665L151.335 16.3724L152.61 14.832ZM155.682 36V38H157.682V36H155.682ZM148.866 36H146.866V38H148.866V36ZM148.866 33.888H150.866V29.1711L147.476 32.4504L148.866 33.888ZM146.178 31.248L145.332 29.4356L146.178 31.248ZM148.434 29.376L150.088 30.5006L150.434 29.9916V29.376H148.434ZM148.434 27.072H150.434V26.0016L149.544 25.4079L148.434 27.072ZM139.938 26.304L141.161 27.8866L141.171 27.879L139.938 26.304ZM139.938 31.104L141.161 29.5214L139.938 31.104ZM140.994 34.72C138.518 34.72 136.681 34.1063 135.318 33.0354L132.847 36.1806C135.068 37.9257 137.838 38.72 140.994 38.72V34.72ZM135.349 33.0601C134.096 32.0347 133.442 30.6733 133.442 28.752H129.442C129.442 31.7587 130.549 34.3013 132.816 36.1559L135.349 33.0601ZM133.442 28.752C133.442 26.6798 134.102 25.3034 135.264 24.3388L132.709 21.2612C130.479 23.1126 129.442 25.7042 129.442 28.752H133.442ZM135.281 24.3246C136.495 23.2935 138.37 22.64 141.186 22.64V18.64C137.794 18.64 134.869 19.4265 132.692 21.2754L135.281 24.3246ZM141.186 22.64C142.422 22.64 143.583 22.7692 144.673 23.0208L145.572 19.1232C144.166 18.7988 142.702 18.64 141.186 18.64V22.64ZM144.673 23.0208C145.779 23.2761 146.713 23.6205 147.493 24.0367L149.375 20.5073C148.236 19.8995 146.962 19.4439 145.572 19.1232L144.673 23.0208ZM150.434 22.272V21.696H146.434V22.272H150.434ZM150.434 21.696C150.434 19.7195 149.689 17.9671 147.996 16.8559L145.801 20.2001C146.156 20.4329 146.434 20.7925 146.434 21.696H150.434ZM147.996 16.8559C146.486 15.8651 144.446 15.52 142.194 15.52V19.52C144.166 19.52 145.263 19.8469 145.801 20.2001L147.996 16.8559ZM142.194 15.52C139.122 15.52 136.249 16.0975 133.604 17.2774L135.233 20.9306C137.323 19.9985 139.634 19.52 142.194 19.52V15.52ZM136.418 19.104V13.824H132.418V19.104H136.418ZM135.22 15.6563C136.047 15.2945 137.207 14.9619 138.75 14.6896L138.055 10.7504C136.334 11.0541 134.838 11.4575 133.617 11.9917L135.22 15.6563ZM138.787 14.6826C140.295 14.387 141.798 14.24 143.298 14.24V10.24C141.535 10.24 139.774 10.413 138.017 10.7574L138.787 14.6826ZM143.298 14.24C147.234 14.24 149.786 15.0658 151.321 16.3606L153.9 13.3034C151.339 11.1422 147.682 10.24 143.298 10.24V14.24ZM151.335 16.3724C152.85 17.6271 153.682 19.4043 153.682 21.984H157.682C157.682 18.4197 156.467 15.4289 153.886 13.2916L151.335 16.3724ZM153.682 21.984V36H157.682V21.984H153.682ZM155.682 34H148.866V38H155.682V34ZM150.866 36V33.888H146.866V36H150.866ZM147.476 32.4504C145.974 33.9034 143.889 34.72 140.994 34.72V38.72C144.691 38.72 147.855 37.6486 150.257 35.3256L147.476 32.4504ZM142.962 33.92C144.404 33.92 145.77 33.6458 147.024 33.0604L145.332 29.4356C144.667 29.7462 143.889 29.92 142.962 29.92V33.92ZM147.024 33.0604C148.278 32.475 149.323 31.6263 150.088 30.5006L146.78 28.2514C146.458 28.7257 145.998 29.125 145.332 29.4356L147.024 33.0604ZM150.434 29.376V27.072H146.434V29.376H150.434ZM149.544 25.4079C147.585 24.102 145.407 23.44 143.058 23.44V27.44C144.613 27.44 146.02 27.866 147.325 28.7361L149.544 25.4079ZM143.058 23.44C141.458 23.44 139.919 23.7798 138.706 24.729L141.171 27.879C141.43 27.6762 141.971 27.44 143.058 27.44V23.44ZM138.715 24.7214C137.411 25.729 136.882 27.198 136.882 28.752H140.882C140.882 28.13 141.057 27.967 141.161 27.8866L138.715 24.7214ZM136.882 28.752C136.882 30.2895 137.443 31.7035 138.715 32.6866L141.161 29.5214C141.025 29.4165 140.882 29.2625 140.882 28.752H136.882ZM138.715 32.6866C139.901 33.603 141.409 33.92 142.962 33.92V29.92C141.891 29.92 141.383 29.693 141.161 29.5214L138.715 32.6866ZM160.48 12.96V10.96H158.48V12.96H160.48ZM167.488 12.96H169.488V10.96H167.488V12.96ZM167.488 16.272H165.488V21.8205L169.028 17.548L167.488 16.272ZM171.376 13.728L172.031 15.618L172.047 15.6124L172.063 15.6065L171.376 13.728ZM177.04 12.816H179.04V10.816H177.04V12.816ZM177.04 18.336V20.336H179.04V18.336H177.04ZM171.184 19.344L170.448 17.4846L170.435 17.4895L171.184 19.344ZM167.728 22.416L165.915 21.5725L165.728 21.9736V22.416H167.728ZM167.728 36V38H169.728V36H167.728ZM160.48 36H158.48V38H160.48V36ZM160.48 14.96H167.488V10.96H160.48V14.96ZM165.488 12.96V16.272H169.488V12.96H165.488ZM169.028 17.548C169.678 16.764 170.639 16.0995 172.031 15.618L170.722 11.838C168.785 12.5085 167.155 13.54 165.948 14.996L169.028 17.548ZM172.063 15.6065C173.469 15.0927 175.119 14.816 177.04 14.816V10.816C174.738 10.816 172.612 11.1473 170.69 11.8495L172.063 15.6065ZM175.04 12.816V18.336H179.04V12.816H175.04ZM177.04 16.336C174.632 16.336 172.422 16.7024 170.448 17.4846L171.921 21.2034C173.339 20.6416 175.033 20.336 177.04 20.336V16.336ZM170.435 17.4895C168.393 18.3145 166.807 19.6546 165.915 21.5725L169.542 23.2595C169.93 22.4254 170.648 21.7175 171.933 21.1985L170.435 17.4895ZM165.728 22.416V36H169.728V22.416H165.728ZM167.728 34H160.48V38H167.728V34ZM162.48 36V12.96H158.48V36H162.48ZM196.902 2.448V0.447997H194.902V2.448H196.902ZM220.134 5.472L218.807 6.96798L218.813 6.97325L218.819 6.97847L220.134 5.472ZM220.134 22.176L218.831 20.659L218.82 20.6682L220.134 22.176ZM204.198 25.104V23.104H202.198V25.104H204.198ZM204.198 36V38H206.198V36H204.198ZM196.902 36H194.902V38H196.902V36ZM214.47 9.696L213.317 11.3299L213.328 11.3378L213.339 11.3455L214.47 9.696ZM204.198 8.544V6.544H202.198V8.544H204.198ZM204.198 19.008H202.198V21.008H204.198V19.008ZM196.902 4.448H211.014V0.447997H196.902V4.448ZM211.014 4.448C214.462 4.448 216.987 5.35297 218.807 6.96798L221.462 3.97602C218.738 1.55902 215.183 0.447997 211.014 0.447997V4.448ZM218.819 6.97847C220.577 8.51423 221.542 10.6885 221.542 13.776H225.542C225.542 9.75946 224.235 6.39777 221.45 3.96553L218.819 6.97847ZM221.542 13.776C221.542 16.9797 220.565 19.1689 218.831 20.659L221.438 23.693C224.247 21.2791 225.542 17.8683 225.542 13.776H221.542ZM218.82 20.6682C217.04 22.2192 214.516 23.104 211.014 23.104V27.104C215.193 27.104 218.748 26.0368 221.448 23.6838L218.82 20.6682ZM211.014 23.104H204.198V27.104H211.014V23.104ZM202.198 25.104V36H206.198V25.104H202.198ZM204.198 34H196.902V38H204.198V34ZM198.902 36V2.448H194.902V36H198.902ZM209.958 21.008C212.256 21.008 214.352 20.5297 215.893 19.2277C217.499 17.8711 218.15 15.9249 218.15 13.776H214.15C214.15 15.1151 213.77 15.7849 213.311 16.1723C212.788 16.6143 211.789 17.008 209.958 17.008V21.008ZM218.15 13.776C218.15 11.4736 217.478 9.33354 215.601 8.04654L213.339 11.3455C213.702 11.5945 214.15 12.1744 214.15 13.776H218.15ZM215.624 8.06206C214.079 6.97175 212.116 6.544 209.958 6.544V10.544C211.64 10.544 212.686 10.8842 213.317 11.3299L215.624 8.06206ZM209.958 6.544H204.198V10.544H209.958V6.544ZM202.198 8.544V19.008H206.198V8.544H202.198ZM204.198 21.008H209.958V17.008H204.198V21.008ZM226.902 12.96V10.96H224.902V12.96H226.902ZM233.91 12.96H235.91V10.96H233.91V12.96ZM233.91 16.272H231.91V21.8205L235.45 17.548L233.91 16.272ZM237.798 13.728L238.452 15.618L238.469 15.6124L238.485 15.6065L237.798 13.728ZM243.462 12.816H245.462V10.816H243.462V12.816ZM243.462 18.336V20.336H245.462V18.336H243.462ZM237.606 19.344L236.87 17.4846L236.857 17.4895L237.606 19.344ZM234.15 22.416L232.337 21.5725L232.15 21.9736V22.416H234.15ZM234.15 36V38H236.15V36H234.15ZM226.902 36H224.902V38H226.902V36ZM226.902 14.96H233.91V10.96H226.902V14.96ZM231.91 12.96V16.272H235.91V12.96H231.91ZM235.45 17.548C236.1 16.764 237.061 16.0995 238.452 15.618L237.144 11.838C235.207 12.5085 233.577 13.54 232.37 14.996L235.45 17.548ZM238.485 15.6065C239.891 15.0927 241.541 14.816 243.462 14.816V10.816C241.16 10.816 239.034 11.1473 237.112 11.8495L238.485 15.6065ZM241.462 12.816V18.336H245.462V12.816H241.462ZM243.462 16.336C241.054 16.336 238.844 16.7024 236.87 17.4846L238.343 21.2034C239.761 20.6416 241.455 20.336 243.462 20.336V16.336ZM236.857 17.4895C234.814 18.3145 233.229 19.6546 232.337 21.5725L235.964 23.2595C236.352 22.4254 237.07 21.7175 238.355 21.1985L236.857 17.4895ZM232.15 22.416V36H236.15V22.416H232.15ZM234.15 34H226.902V38H234.15V34ZM228.902 36V12.96H224.902V36H228.902ZM251.408 35.232L250.524 37.0263L250.541 37.0345L250.557 37.0423L251.408 35.232ZM246.56 30.96L244.847 31.9933L244.858 32.0108L244.869 32.028L246.56 30.96ZM246.56 18.096L244.86 17.0413L244.854 17.0519L244.847 17.0627L246.56 18.096ZM251.408 13.776L250.535 11.9763L250.524 11.9817L251.408 13.776ZM266 13.776L265.116 15.5704L265.127 15.5756L266 13.776ZM270.848 18.096L269.135 19.1293L269.142 19.1401L269.148 19.1507L270.848 18.096ZM270.848 30.96L269.148 29.9053L269.143 29.9135L270.848 30.96ZM266.048 35.232L266.909 37.0372L266.92 37.0318L266.931 37.0263L266.048 35.232ZM263.408 29.28L264.841 30.6747L264.85 30.6652L264.86 30.6555L263.408 29.28ZM263.408 19.68L261.955 21.0544L261.974 21.0746L261.994 21.0942L263.408 19.68ZM254.048 19.68L255.462 21.0942L255.472 21.0845L255.481 21.0747L254.048 19.68ZM254.048 29.28L252.596 30.6555L252.614 30.6751L252.634 30.6942L254.048 29.28ZM258.752 34.72C256.206 34.72 254.058 34.267 252.258 33.4217L250.557 37.0423C252.982 38.181 255.73 38.72 258.752 38.72V34.72ZM252.291 33.4377C250.516 32.564 249.191 31.3807 248.251 29.892L244.869 32.028C246.233 34.1873 248.139 35.852 250.524 37.0263L252.291 33.4377ZM248.272 29.9267C247.365 28.4233 246.88 26.6306 246.88 24.48H242.88C242.88 27.2574 243.515 29.7847 244.847 31.9933L248.272 29.9267ZM246.88 24.48C246.88 22.404 247.36 20.6408 248.272 19.1293L244.847 17.0627C243.519 19.2632 242.88 21.756 242.88 24.48H246.88ZM248.259 19.1507C249.201 17.6325 250.525 16.4396 252.291 15.5703L250.524 11.9817C248.13 13.1604 246.222 14.8475 244.86 17.0413L248.259 19.1507ZM252.28 15.5756C254.074 14.7058 256.214 14.24 258.752 14.24V10.24C255.721 10.24 252.965 10.7982 250.535 11.9764L252.28 15.5756ZM258.752 14.24C261.254 14.24 263.358 14.7047 265.116 15.5703L266.883 11.9817C264.482 10.7993 261.753 10.24 258.752 10.24V14.24ZM265.127 15.5756C266.921 16.4454 268.232 17.6321 269.135 19.1293L272.56 17.0627C271.224 14.8479 269.302 13.1546 266.872 11.9764L265.127 15.5756ZM269.148 19.1507C270.085 20.6592 270.576 22.4147 270.576 24.48H274.576C274.576 21.7453 273.915 19.2448 272.547 17.0413L269.148 19.1507ZM270.576 24.48C270.576 26.6202 270.08 28.4051 269.148 29.9053L272.547 32.0147C273.92 29.8029 274.576 27.2678 274.576 24.48H270.576ZM269.143 29.9135C268.237 31.389 266.935 32.566 265.164 33.4377L266.931 37.0263C269.321 35.85 271.218 34.179 272.552 32.0065L269.143 29.9135ZM265.187 33.4268C263.426 34.2666 261.299 34.72 258.752 34.72V38.72C261.773 38.72 264.51 38.1814 266.909 37.0372L265.187 33.4268ZM258.752 33.056C261.138 33.056 263.245 32.3156 264.841 30.6747L261.974 27.8853C261.267 28.6124 260.27 29.056 258.752 29.056V33.056ZM264.86 30.6555C266.427 29.0009 267.136 26.8751 267.136 24.48H263.136C263.136 26.0529 262.692 27.1271 261.956 27.9045L264.86 30.6555ZM267.136 24.48C267.136 22.0453 266.44 19.8836 264.822 18.2658L261.994 21.0942C262.68 21.7804 263.136 22.8187 263.136 24.48H267.136ZM264.861 18.3056C263.283 16.6377 261.157 15.904 258.752 15.904V19.904C260.314 19.904 261.293 20.3543 261.955 21.0544L264.861 18.3056ZM258.752 15.904C256.344 15.904 254.217 16.638 252.614 18.2853L255.481 21.0747C256.182 20.354 257.191 19.904 258.752 19.904V15.904ZM252.634 18.2658C251.016 19.8836 250.32 22.0453 250.32 24.48H254.32C254.32 22.8187 254.776 21.7804 255.462 21.0942L252.634 18.2658ZM250.32 24.48C250.32 26.8751 251.028 29.0009 252.596 30.6555L255.5 27.9045C254.763 27.1271 254.32 26.0529 254.32 24.48H250.32ZM252.634 30.6942C254.255 32.3155 256.364 33.056 258.752 33.056V29.056C257.235 29.056 256.209 28.6125 255.462 27.8658L252.634 30.6942ZM284.365 46.608L283.996 48.5738L284.003 48.5751L284.365 46.608ZM280.477 45.456H278.477V46.7438L279.649 47.2767L280.477 45.456ZM280.477 40.128L281.284 38.2984L278.477 37.0586V40.128H280.477ZM294.589 40.176L295.961 41.6312L294.589 40.176ZM296.269 33.984H298.269V29.4825L294.928 32.4998L296.269 33.984ZM292.621 36L292.026 34.0903L292.007 34.0963L291.988 34.1026L292.621 36ZM281.629 35.184L280.64 36.9223L280.657 36.9324L280.675 36.9421L281.629 35.184ZM277.261 30.816L278.999 29.827L277.261 30.816ZM277.213 18.048L275.474 17.059L275.468 17.0704L275.461 17.0818L277.213 18.048ZM281.533 13.776L282.488 15.533L282.499 15.5272L281.533 13.776ZM296.509 15.456L295.154 16.9271L298.509 20.0172V15.456H296.509ZM296.509 12.96V10.96H294.509V12.96H296.509ZM303.517 12.96H305.517V10.96H303.517V12.96ZM299.965 43.776L301.318 45.2487L299.965 43.776ZM293.773 29.904L294.892 31.5612L294.902 31.5546L293.773 29.904ZM296.269 26.64L298.166 27.2725L298.269 26.9646V26.64H296.269ZM296.269 22.32H298.269V21.9519L298.138 21.608L296.269 22.32ZM293.725 19.104L292.584 20.7467L292.594 20.754L292.605 20.7612L293.725 19.104ZM284.941 19.68L283.564 18.2291L283.555 18.238L283.545 18.2471L284.941 19.68ZM284.941 29.28L283.526 30.6942L283.536 30.7034L283.545 30.7125L284.941 29.28ZM289.021 45.04C287.61 45.04 286.179 44.9078 284.726 44.6409L284.003 48.5751C285.686 48.8842 287.359 49.04 289.021 49.04V45.04ZM284.733 44.6423C283.305 44.3744 282.173 44.0302 281.304 43.6353L279.649 47.2767C280.892 47.8418 282.353 48.2656 283.996 48.5737L284.733 44.6423ZM282.477 45.456V40.128H278.477V45.456H282.477ZM279.669 41.9576C282.433 43.1781 285.565 43.76 289.021 43.76V39.76C286.012 39.76 283.448 39.2539 281.284 38.2984L279.669 41.9576ZM289.021 43.76C291.797 43.76 294.286 43.2101 295.961 41.6312L293.217 38.7208C292.651 39.2539 291.428 39.76 289.021 39.76V43.76ZM295.961 41.6312C297.613 40.0733 298.269 37.8754 298.269 35.424H294.269C294.269 37.1967 293.804 38.1667 293.217 38.7208L295.961 41.6312ZM298.269 35.424V33.984H294.269V35.424H298.269ZM294.928 32.4998C294.177 33.178 293.225 33.7173 292.026 34.0903L293.215 37.9097C294.896 37.3867 296.376 36.582 297.609 35.4682L294.928 32.4998ZM291.988 34.1026C290.767 34.5097 289.446 34.72 288.013 34.72V38.72C289.843 38.72 291.594 38.4503 293.253 37.8974L291.988 34.1026ZM288.013 34.72C285.943 34.72 284.148 34.2753 282.582 33.4259L280.675 36.9421C282.885 38.1407 285.346 38.72 288.013 38.72V34.72ZM282.618 33.4457C281.074 32.5675 279.877 31.3704 278.999 29.827L275.522 31.805C276.756 33.9736 278.471 35.6885 280.64 36.9223L282.618 33.4457ZM278.999 29.827C278.133 28.3043 277.677 26.5399 277.677 24.48H273.677C273.677 27.1561 274.277 29.6157 275.522 31.805L278.999 29.827ZM277.677 24.48C277.677 22.3356 278.126 20.5332 278.964 19.0142L275.461 17.0818C274.252 19.2748 273.677 21.7604 273.677 24.48H277.677ZM278.951 19.037C279.828 17.4952 281.001 16.3417 282.488 15.533L280.577 12.019C278.416 13.1943 276.709 14.8888 275.474 17.059L278.951 19.037ZM282.499 15.5272C284.026 14.6848 285.798 14.24 287.869 14.24V10.24C285.203 10.24 282.752 10.8192 280.566 12.0248L282.499 15.5272ZM287.869 14.24C289.473 14.24 290.813 14.4695 291.923 14.8824L293.318 11.1336C291.676 10.5225 289.848 10.24 287.869 10.24V14.24ZM291.923 14.8824C293.027 15.2932 294.105 15.9608 295.154 16.9271L297.864 13.9849C296.481 12.7112 294.966 11.7468 293.318 11.1336L291.923 14.8824ZM298.509 15.456V12.96H294.509V15.456H298.509ZM296.509 14.96H303.517V10.96H296.509V14.96ZM301.517 12.96V34.512H305.517V12.96H301.517ZM301.517 34.512C301.517 38.0986 300.471 40.5949 298.611 42.3033L301.318 45.2487C304.195 42.6051 305.517 38.9254 305.517 34.512H301.517ZM298.611 42.3033C296.766 43.9987 293.706 45.04 289.021 45.04V49.04C294.192 49.04 298.427 47.9053 301.318 45.2487L298.611 42.3033ZM289.741 33.104C291.622 33.104 293.36 32.5967 294.892 31.5612L292.653 28.2468C291.817 28.8113 290.868 29.104 289.741 29.104V33.104ZM294.902 31.5546C296.463 30.4867 297.574 29.048 298.166 27.2725L294.371 26.0075C294.067 26.92 293.514 27.6573 292.643 28.2534L294.902 31.5546ZM298.269 26.64V22.32H294.269V26.64H298.269ZM298.138 21.608C297.48 19.882 296.372 18.4789 294.844 17.4468L292.605 20.7612C293.445 21.3291 294.033 22.07 294.4 23.032L298.138 21.608ZM294.865 17.4613C293.354 16.4115 291.621 15.904 289.741 15.904V19.904C290.868 19.904 291.791 20.1965 292.584 20.7467L294.865 17.4613ZM289.741 15.904C287.351 15.904 285.234 16.6444 283.564 18.2291L286.317 21.1309C287.143 20.3476 288.226 19.904 289.741 19.904V15.904ZM283.545 18.2471C281.877 19.8713 281.117 22.0071 281.117 24.432H285.117C285.117 22.8889 285.572 21.8567 286.336 21.1129L283.545 18.2471ZM281.117 24.432C281.117 26.8799 281.871 29.0388 283.526 30.6942L286.355 27.8658C285.578 27.0892 285.117 26.0161 285.117 24.432H281.117ZM283.545 30.7125C285.213 32.3374 287.335 33.104 289.741 33.104V29.104C288.242 29.104 287.165 28.6546 286.336 27.8475L283.545 30.7125ZM308.559 12.96V10.96H306.559V12.96H308.559ZM315.566 12.96H317.566V10.96H315.566V12.96ZM315.566 16.272H313.566V21.8205L317.107 17.548L315.566 16.272ZM319.454 13.728L320.109 15.618L320.125 15.6124L320.141 15.6065L319.454 13.728ZM325.118 12.816H327.118V10.816H325.118V12.816ZM325.118 18.336V20.336H327.118V18.336H325.118ZM319.263 19.344L318.526 17.4846L318.514 17.4895L319.263 19.344ZM315.806 22.416L313.993 21.5725L313.806 21.9736V22.416H315.806ZM315.806 36V38H317.806V36H315.806ZM308.559 36H306.559V38H308.559V36ZM308.559 14.96H315.566V10.96H308.559V14.96ZM313.566 12.96V16.272H317.566V12.96H313.566ZM317.107 17.548C317.756 16.764 318.718 16.0995 320.109 15.618L318.8 11.838C316.863 12.5085 315.233 13.54 314.026 14.996L317.107 17.548ZM320.141 15.6065C321.547 15.0927 323.197 14.816 325.118 14.816V10.816C322.816 10.816 320.69 11.1473 318.768 11.8495L320.141 15.6065ZM323.118 12.816V18.336H327.118V12.816H323.118ZM325.118 16.336C322.71 16.336 320.5 16.7024 318.526 17.4846L319.999 21.2034C321.417 20.6416 323.111 20.336 325.118 20.336V16.336ZM318.514 17.4895C316.471 18.3145 314.885 19.6546 313.993 21.5725L317.62 23.2595C318.008 22.4254 318.726 21.7175 320.011 21.1985L318.514 17.4895ZM313.806 22.416V36H317.806V22.416H313.806ZM315.806 34H308.559V38H315.806V34ZM310.559 36V12.96H306.559V36H310.559ZM327.723 34.608L326.456 36.1559L326.472 36.1684L326.487 36.1806L327.723 34.608ZM327.627 22.8L328.904 24.3388L328.913 24.3318L328.921 24.3246L327.627 22.8ZM338.763 21.072L338.313 23.0208L338.763 21.072ZM342.075 22.272L341.134 24.0367L344.075 25.6053V22.272H342.075ZM340.539 18.528L339.442 20.2001L340.539 18.528ZM328.059 19.104H326.059V22.1857L328.873 20.9306L328.059 19.104ZM328.059 13.824L327.257 11.9917L326.059 12.516V13.824H328.059ZM332.043 12.72L332.39 14.6896L332.409 14.6863L332.428 14.6826L332.043 12.72ZM346.251 14.832L344.961 16.3606L344.968 16.3665L344.975 16.3724L346.251 14.832ZM349.323 36V38H351.323V36H349.323ZM342.507 36H340.507V38H342.507V36ZM342.507 33.888H344.507V29.1711L341.116 32.4504L342.507 33.888ZM339.819 31.248L338.973 29.4356L339.819 31.248ZM342.075 29.376L343.729 30.5006L344.075 29.9916V29.376H342.075ZM342.075 27.072H344.075V26.0016L343.184 25.4079L342.075 27.072ZM333.579 26.304L334.802 27.8866L334.811 27.879L333.579 26.304ZM333.579 31.104L334.802 29.5214L333.579 31.104ZM334.635 34.72C332.159 34.72 330.322 34.1063 328.959 33.0354L326.487 36.1806C328.708 37.9257 331.479 38.72 334.635 38.72V34.72ZM328.989 33.0601C327.736 32.0347 327.083 30.6733 327.083 28.752H323.083C323.083 31.7587 324.19 34.3013 326.456 36.1559L328.989 33.0601ZM327.083 28.752C327.083 26.6798 327.743 25.3034 328.904 24.3388L326.349 21.2612C324.119 23.1126 323.083 25.7042 323.083 28.752H327.083ZM328.921 24.3246C330.136 23.2935 332.011 22.64 334.827 22.64V18.64C331.435 18.64 328.51 19.4265 326.332 21.2754L328.921 24.3246ZM334.827 22.64C336.063 22.64 337.223 22.7692 338.313 23.0208L339.213 19.1232C337.807 18.7988 336.343 18.64 334.827 18.64V22.64ZM338.313 23.0208C339.419 23.2761 340.353 23.6205 341.134 24.0367L343.016 20.5073C341.876 19.8995 340.602 19.4439 339.213 19.1232L338.313 23.0208ZM344.075 22.272V21.696H340.075V22.272H344.075ZM344.075 21.696C344.075 19.7195 343.329 17.9671 341.636 16.8559L339.442 20.2001C339.796 20.4329 340.075 20.7925 340.075 21.696H344.075ZM341.636 16.8559C340.126 15.8651 338.087 15.52 335.835 15.52V19.52C337.807 19.52 338.903 19.8469 339.442 20.2001L341.636 16.8559ZM335.835 15.52C332.763 15.52 329.89 16.0975 327.244 17.2774L328.873 20.9306C330.964 19.9985 333.275 19.52 335.835 19.52V15.52ZM330.059 19.104V13.824H326.059V19.104H330.059ZM328.861 15.6563C329.688 15.2945 330.847 14.9619 332.39 14.6896L331.695 10.7504C329.974 11.0541 328.478 11.4575 327.257 11.9917L328.861 15.6563ZM332.428 14.6826C333.935 14.387 335.439 14.24 336.939 14.24V10.24C335.175 10.24 333.414 10.413 331.658 10.7574L332.428 14.6826ZM336.939 14.24C340.875 14.24 343.427 15.0658 344.961 16.3606L347.541 13.3034C344.979 11.1422 341.323 10.24 336.939 10.24V14.24ZM344.975 16.3724C346.49 17.6271 347.323 19.4043 347.323 21.984H351.323C351.323 18.4197 350.107 15.4289 347.526 13.2916L344.975 16.3724ZM347.323 21.984V36H351.323V21.984H347.323ZM349.323 34H342.507V38H349.323V34ZM344.507 36V33.888H340.507V36H344.507ZM341.116 32.4504C339.614 33.9034 337.53 34.72 334.635 34.72V38.72C338.332 38.72 341.496 37.6486 343.897 35.3256L341.116 32.4504ZM336.603 33.92C338.045 33.92 339.41 33.6458 340.665 33.0604L338.973 29.4356C338.308 29.7462 337.529 29.92 336.603 29.92V33.92ZM340.665 33.0604C341.919 32.475 342.963 31.6263 343.729 30.5006L340.421 28.2514C340.099 28.7257 339.639 29.125 338.973 29.4356L340.665 33.0604ZM344.075 29.376V27.072H340.075V29.376H344.075ZM343.184 25.4079C341.225 24.102 339.048 23.44 336.699 23.44V27.44C338.254 27.44 339.66 27.866 340.965 28.7361L343.184 25.4079ZM336.699 23.44C335.098 23.44 333.559 23.7798 332.346 24.729L334.811 27.879C335.071 27.6762 335.612 27.44 336.699 27.44V23.44ZM332.356 24.7214C331.052 25.729 330.523 27.198 330.523 28.752H334.523C334.523 28.13 334.698 27.967 334.802 27.8866L332.356 24.7214ZM330.523 28.752C330.523 30.2895 331.084 31.7035 332.356 32.6866L334.802 29.5214C334.666 29.4165 334.523 29.2625 334.523 28.752H330.523ZM332.356 32.6866C333.542 33.603 335.05 33.92 336.603 33.92V29.92C335.532 29.92 335.024 29.693 334.802 29.5214L332.356 32.6866ZM354.121 12.96V10.96H352.121V12.96H354.121ZM360.889 12.96H362.889V10.96H360.889V12.96ZM360.889 15.744H358.889V21.0185L362.386 17.0701L360.889 15.744ZM364.345 13.152L365.186 14.9666V14.9666L364.345 13.152ZM372.649 13.104L371.691 14.8598L371.712 14.8711L371.733 14.8819L372.649 13.104ZM375.145 15.552L373.399 16.5276L374.732 18.9128L376.603 16.9214L375.145 15.552ZM378.745 13.104L378.002 11.247L377.995 11.2499L377.988 11.2529L378.745 13.104ZM389.305 14.496L387.766 15.7731L387.774 15.7827L387.782 15.7922L389.305 14.496ZM391.225 36V38H393.225V36H391.225ZM384.313 36H382.313V38H384.313V36ZM383.449 18.864L384.936 17.5261V17.5261L383.449 18.864ZM376.345 20.016L374.762 18.7931L374.302 19.3891L374.349 20.1408L376.345 20.016ZM376.441 36V38H378.441V36H376.441ZM369.481 36H367.481V38H369.481V36ZM368.713 18.816L367.143 20.0553L367.179 20.1011L367.218 20.1447L368.713 18.816ZM361.129 21.12L359.48 19.988L359.129 20.4995V21.12H361.129ZM361.129 36V38H363.129V36H361.129ZM354.121 36H352.121V38H354.121V36ZM354.121 14.96H360.889V10.96H354.121V14.96ZM358.889 12.96V15.744H362.889V12.96H358.889ZM362.386 17.0701C363.202 16.1491 364.133 15.4547 365.186 14.9666L363.504 11.3374C361.933 12.0653 360.56 13.0989 359.392 14.4179L362.386 17.0701ZM365.186 14.9666C366.242 14.4773 367.315 14.24 368.425 14.24V10.24C366.719 10.24 365.072 10.6107 363.504 11.3374L365.186 14.9666ZM368.425 14.24C369.995 14.24 371.034 14.5012 371.691 14.8598L373.607 11.3482C372.152 10.5548 370.375 10.24 368.425 10.24V14.24ZM371.733 14.8819C372.422 15.2368 372.973 15.765 373.399 16.5276L376.891 14.5764C376.101 13.163 374.988 12.0592 373.565 11.326L371.733 14.8819ZM376.603 16.9214C377.389 16.0847 378.346 15.4281 379.502 14.9551L377.988 11.2529C376.328 11.9319 374.885 12.9073 373.687 14.1826L376.603 16.9214ZM379.488 14.961C380.716 14.4698 381.888 14.24 383.017 14.24V10.24C381.33 10.24 379.654 10.5862 378.002 11.247L379.488 14.961ZM383.017 14.24C385.672 14.24 387.058 14.9196 387.766 15.7731L390.844 13.2189C389.056 11.0644 386.25 10.24 383.017 10.24V14.24ZM387.782 15.7922C388.643 16.8037 389.225 18.4451 389.225 21.024H393.225C393.225 17.9069 392.527 15.1963 390.828 13.1998L387.782 15.7922ZM389.225 21.024V36H393.225V21.024H389.225ZM391.225 34H384.313V38H391.225V34ZM386.313 36V22.032H382.313V36H386.313ZM386.313 22.032C386.313 20.3888 386.008 18.7179 384.936 17.5261L381.962 20.2019C382.042 20.2901 382.313 20.7312 382.313 22.032H386.313ZM384.936 17.5261C383.827 16.2947 382.234 15.904 380.665 15.904V19.904C381.656 19.904 381.919 20.1533 381.962 20.2019L384.936 17.5261ZM380.665 15.904C378.259 15.904 376.232 16.8909 374.762 18.7931L377.928 21.2389C378.634 20.3251 379.487 19.904 380.665 19.904V15.904ZM374.349 20.1408C374.412 21.1447 374.441 21.9307 374.441 22.512H378.441C378.441 21.8133 378.406 20.9353 378.341 19.8912L374.349 20.1408ZM374.441 22.512V36H378.441V22.512H374.441ZM376.441 34H369.481V38H376.441V34ZM371.481 36V21.792H367.481V36H371.481ZM371.481 21.792C371.481 20.2555 371.224 18.6307 370.208 17.4873L367.218 20.1447C367.205 20.1303 367.279 20.2061 367.352 20.4918C367.426 20.7765 367.481 21.1986 367.481 21.792H371.481ZM370.283 17.5767C369.249 16.2673 367.646 15.904 366.169 15.904V19.904C366.622 19.904 366.896 19.9622 367.042 20.0147C367.172 20.0612 367.171 20.0906 367.143 20.0553L370.283 17.5767ZM366.169 15.904C363.391 15.904 361.172 17.524 359.48 19.988L362.778 22.252C364.03 20.428 365.171 19.904 366.169 19.904V15.904ZM359.129 21.12V36H363.129V21.12H359.129ZM361.129 34H354.121V38H361.129V34ZM356.121 36V12.96H352.121V36H356.121ZM399.915 36.144L400.295 34.1804L400.283 34.178L400.27 34.1757L399.915 36.144ZM395.307 34.608H393.307V35.7404L394.278 36.323L395.307 34.608ZM395.307 28.944L396.336 27.229L393.307 25.4116V28.944H395.307ZM399.915 30.816L399.398 32.7479L399.915 30.816ZM407.787 31.2L408.479 33.0767L407.787 31.2ZM408.171 28.8L406.826 30.2799L406.864 30.3149L406.905 30.3479L408.171 28.8ZM406.539 27.984L405.856 29.8636L405.906 29.8818L405.957 29.8973L406.539 27.984ZM402.987 26.88L402.421 28.7983L402.433 28.8016L402.987 26.88ZM398.379 25.152L397.404 26.8979L397.434 26.9148L397.465 26.9306L398.379 25.152ZM395.883 22.896L394.174 23.934L394.187 23.9559L394.201 23.9775L395.883 22.896ZM397.899 14.064L398.962 15.7584L398.969 15.7536L397.899 14.064ZM410.619 12.768L410.213 14.7263L410.234 14.7306L410.255 14.7346L410.619 12.768ZM414.603 14.064H416.603V12.9181L415.615 12.3386L414.603 14.064ZM414.603 19.584L413.507 21.2569L416.603 23.2854V19.584H414.603ZM410.955 18.096L410.45 20.0313L410.46 20.0338L410.955 18.096ZM403.563 17.904L402.906 16.015L402.893 16.0196L402.88 16.0244L403.563 17.904ZM403.515 20.736L402.655 22.5417L402.671 22.5494L402.688 22.5567L403.515 20.736ZM407.403 21.936L406.91 23.8744L406.918 23.8763L407.403 21.936ZM408.363 22.176L408.884 20.2451L408.866 20.2402L408.848 20.2357L408.363 22.176ZM413.067 24L412.038 25.715L412.056 25.7259L412.075 25.7365L413.067 24ZM415.419 26.352L413.618 27.2215L413.636 27.2594L413.656 27.2964L415.419 26.352ZM413.403 34.848L414.533 36.4986L414.542 36.4919L414.552 36.4851L413.403 34.848ZM405.483 34.72C403.902 34.72 402.175 34.5442 400.295 34.1804L399.535 38.1076C401.624 38.5118 403.608 38.72 405.483 38.72V34.72ZM400.27 34.1757C398.446 33.8467 397.17 33.3934 396.336 32.893L394.278 36.323C395.684 37.1666 397.481 37.7373 399.56 38.1123L400.27 34.1757ZM397.307 34.608V28.944H393.307V34.608H397.307ZM394.278 30.659C395.751 31.5426 397.468 32.2309 399.398 32.7479L400.433 28.8841C398.779 28.4411 397.423 27.8814 396.336 27.229L394.278 30.659ZM399.398 32.7479C401.325 33.2641 403.165 33.536 404.907 33.536V29.536C403.578 29.536 402.09 29.3279 400.433 28.8841L399.398 32.7479ZM404.907 33.536C406.264 33.536 407.522 33.4292 408.479 33.0767L407.096 29.3233C406.837 29.4188 406.174 29.536 404.907 29.536V33.536ZM408.479 33.0767C409.057 32.8635 409.648 32.4992 410.086 31.9C410.531 31.291 410.699 30.6015 410.699 29.952H406.699C406.699 29.9105 406.715 29.733 406.856 29.54C406.99 29.3568 407.125 29.3125 407.096 29.3233L408.479 33.0767ZM410.699 29.952C410.699 28.9103 410.283 27.9435 409.438 27.2521L406.905 30.3479C406.863 30.314 406.798 30.2433 406.749 30.1373C406.702 30.0344 406.699 29.9604 406.699 29.952H410.699ZM409.517 27.3201C408.851 26.715 407.986 26.3338 407.122 26.0707L405.957 29.8973C406.564 30.0822 406.788 30.245 406.826 30.2799L409.517 27.3201ZM407.223 26.1044C406.449 25.8231 405.208 25.439 403.542 24.9584L402.433 28.8016C404.095 29.281 405.221 29.6329 405.856 29.8636L407.223 26.1044ZM403.553 24.9618C401.658 24.4025 400.256 23.868 399.294 23.3734L397.465 26.9306C398.743 27.588 400.413 28.2055 402.421 28.7982L403.553 24.9618ZM399.355 23.4061C398.505 22.9309 397.936 22.3909 397.566 21.8145L394.201 23.9775C394.982 25.1931 396.078 26.1571 397.404 26.8979L399.355 23.4061ZM397.593 21.858C397.293 21.3648 397.067 20.6037 397.067 19.44H393.067C393.067 21.0923 393.385 22.6352 394.174 23.934L397.593 21.858ZM397.067 19.44C397.067 17.6649 397.709 16.544 398.962 15.7584L396.837 12.3696C394.313 13.952 393.067 16.4151 393.067 19.44H397.067ZM398.969 15.7536C400.458 14.8105 402.633 14.24 405.675 14.24V10.24C402.189 10.24 399.18 10.8855 396.829 12.3744L398.969 15.7536ZM405.675 14.24C407.128 14.24 408.64 14.3998 410.213 14.7263L411.026 10.8097C409.207 10.4322 407.422 10.24 405.675 10.24V14.24ZM410.255 14.7346C411.881 15.0356 412.951 15.4135 413.592 15.7894L415.615 12.3386C414.4 11.6265 412.814 11.1404 410.983 10.8014L410.255 14.7346ZM412.603 14.064V19.584H416.603V14.064H412.603ZM415.699 17.9111C414.529 17.1446 413.089 16.5767 411.45 16.1582L410.46 20.0338C411.829 20.3833 412.821 20.8074 413.507 21.2569L415.699 17.9111ZM411.46 16.1608C409.836 15.7372 408.227 15.52 406.635 15.52V19.52C407.86 19.52 409.13 19.6868 410.45 20.0312L411.46 16.1608ZM406.635 15.52C405.231 15.52 403.949 15.6522 402.906 16.015L404.22 19.793C404.649 19.6438 405.416 19.52 406.635 19.52V15.52ZM402.88 16.0244C402.252 16.2527 401.622 16.6406 401.158 17.2733C400.687 17.9157 400.507 18.6467 400.507 19.344H404.507C404.507 19.3345 404.508 19.3672 404.49 19.4279C404.471 19.4918 404.437 19.5665 404.384 19.6387C404.272 19.7914 404.171 19.8113 404.247 19.7836L402.88 16.0244ZM400.507 19.344C400.507 20.0419 400.709 20.7263 401.139 21.321C401.554 21.8934 402.105 22.2796 402.655 22.5417L404.375 18.9303C404.254 18.8724 404.301 18.8666 404.379 18.975C404.419 19.0302 404.455 19.0988 404.479 19.1748C404.502 19.2497 404.507 19.3098 404.507 19.344H400.507ZM402.688 22.5567C403.573 22.9592 405.029 23.3959 406.91 23.8743L407.896 19.9977C406.002 19.5161 404.866 19.1528 404.343 18.9153L402.688 22.5567ZM406.918 23.8763L407.878 24.1163L408.848 20.2357L407.888 19.9957L406.918 23.8763ZM407.842 24.1069C409.773 24.6279 411.142 25.1774 412.038 25.715L414.096 22.285C412.752 21.4786 410.986 20.8121 408.884 20.2451L407.842 24.1069ZM412.075 25.7365C412.933 26.2266 413.386 26.7399 413.618 27.2215L417.22 25.4825C416.557 24.1081 415.442 23.0534 414.06 22.2635L412.075 25.7365ZM413.656 27.2964C413.935 27.8175 414.139 28.6021 414.139 29.76H418.139C418.139 28.1659 417.863 26.6785 417.182 25.4076L413.656 27.2964ZM414.139 29.76C414.139 31.1789 413.58 32.2809 412.254 33.2109L414.552 36.4851C416.875 34.8551 418.139 32.5651 418.139 29.76H414.139ZM412.274 33.1974C410.922 34.1226 408.746 34.72 405.483 34.72V38.72C409.132 38.72 412.237 38.0694 414.533 36.4986L412.274 33.1974Z" fill="url(#paint0_linear_204_276)"/>
<defs>
<linearGradient id="paint0_linear_204_276" x1="-39.1921" y1="10.0849" x2="1098.3" y2="119.933" gradientUnits="userSpaceOnUse">
<stop stop-color="#3940DE"/>
<stop offset="0.677083" stop-color="#8F00FF"/>
<stop offset="1" stop-color="#9539DE"/>
</linearGradient>
</defs>
</svg>
