<svg width="327" height="39" viewBox="0 0 327 39" fill="none" xmlns="http://www.w3.org/2000/svg">
<path d="M2.13 30V9H5.31L15.84 24.81V9H19.02V30H15.84L5.31 14.19V30H2.13ZM30.1223 30.36C28.6623 30.36 27.3623 30.04 26.2223 29.4C25.1023 28.74 24.2223 27.83 23.5823 26.67C22.9423 25.51 22.6223 24.16 22.6223 22.62C22.6223 21.06 22.9323 19.69 23.5523 18.51C24.1923 17.33 25.0723 16.41 26.1923 15.75C27.3323 15.09 28.6523 14.76 30.1523 14.76C31.6123 14.76 32.8823 15.09 33.9623 15.75C35.0423 16.39 35.8823 17.25 36.4823 18.33C37.0823 19.41 37.3823 20.6 37.3823 21.9C37.3823 22.1 37.3723 22.32 37.3523 22.56C37.3523 22.78 37.3423 23.03 37.3223 23.31H25.7423C25.8423 24.75 26.3123 25.85 27.1523 26.61C28.0123 27.35 29.0023 27.72 30.1223 27.72C31.0223 27.72 31.7723 27.52 32.3723 27.12C32.9923 26.7 33.4523 26.14 33.7523 25.44H36.9323C36.5323 26.84 35.7323 28.01 34.5323 28.95C33.3523 29.89 31.8823 30.36 30.1223 30.36ZM30.1223 17.37C29.0623 17.37 28.1223 17.69 27.3023 18.33C26.4823 18.95 25.9823 19.89 25.8023 21.15H34.2023C34.1423 19.99 33.7323 19.07 32.9723 18.39C32.2123 17.71 31.2623 17.37 30.1223 17.37ZM43.0659 30L38.6859 15.12H41.8659L44.7459 26.34L47.9859 15.12H51.5259L54.7659 26.34L57.6459 15.12H60.8259L56.4459 30H53.1759L49.7559 18.3L46.3359 30H43.0659ZM71.1241 30V9H79.0441C81.2241 9 82.8741 9.51 83.9941 10.53C85.1141 11.55 85.6741 12.83 85.6741 14.37C85.6741 15.71 85.3141 16.78 84.5941 17.58C83.8741 18.36 83.0041 18.89 81.9841 19.17C82.7841 19.33 83.4941 19.65 84.1141 20.13C84.7541 20.61 85.2541 21.21 85.6141 21.93C85.9741 22.65 86.1541 23.43 86.1541 24.27C86.1541 25.35 85.8841 26.33 85.3441 27.21C84.8241 28.07 84.0541 28.75 83.0341 29.25C82.0141 29.75 80.7641 30 79.2841 30H71.1241ZM74.3041 18H78.6541C79.8741 18 80.8041 17.72 81.4441 17.16C82.0841 16.58 82.4041 15.79 82.4041 14.79C82.4041 13.81 82.0841 13.03 81.4441 12.45C80.8241 11.87 79.8741 11.58 78.5941 11.58H74.3041V18ZM74.3041 27.39H78.8641C80.1441 27.39 81.1341 27.09 81.8341 26.49C82.5541 25.89 82.9141 25.05 82.9141 23.97C82.9141 22.89 82.5441 22.04 81.8041 21.42C81.0641 20.78 80.0641 20.46 78.8041 20.46H74.3041V27.39ZM94.5598 30.36C93.2998 30.36 92.2598 30.15 91.4398 29.73C90.6198 29.31 90.0098 28.76 89.6098 28.08C89.2098 27.38 89.0098 26.62 89.0098 25.8C89.0098 24.36 89.5698 23.22 90.6898 22.38C91.8098 21.54 93.4098 21.12 95.4898 21.12H99.3898V20.85C99.3898 19.69 99.0698 18.82 98.4298 18.24C97.8098 17.66 96.9998 17.37 95.9998 17.37C95.1198 17.37 94.3498 17.59 93.6898 18.03C93.0498 18.45 92.6598 19.08 92.5198 19.92H89.3398C89.4398 18.84 89.7998 17.92 90.4198 17.16C91.0598 16.38 91.8598 15.79 92.8198 15.39C93.7998 14.97 94.8698 14.76 96.0298 14.76C98.1098 14.76 99.7198 15.31 100.86 16.41C102 17.49 102.57 18.97 102.57 20.85V30H99.8098L99.5398 27.45C99.1198 28.27 98.5098 28.96 97.7098 29.52C96.9098 30.08 95.8598 30.36 94.5598 30.36ZM95.1898 27.78C96.0498 27.78 96.7698 27.58 97.3498 27.18C97.9498 26.76 98.4098 26.21 98.7298 25.53C99.0698 24.85 99.2798 24.1 99.3598 23.28H95.8198C94.5598 23.28 93.6598 23.5 93.1198 23.94C92.5998 24.38 92.3398 24.93 92.3398 25.59C92.3398 26.27 92.5898 26.81 93.0898 27.21C93.6098 27.59 94.3098 27.78 95.1898 27.78ZM113.328 30.36C111.868 30.36 110.558 30.03 109.398 29.37C108.258 28.71 107.358 27.8 106.698 26.64C106.058 25.46 105.738 24.1 105.738 22.56C105.738 21.02 106.058 19.67 106.698 18.51C107.358 17.33 108.258 16.41 109.398 15.75C110.558 15.09 111.868 14.76 113.328 14.76C115.168 14.76 116.708 15.24 117.948 16.2C119.208 17.16 120.018 18.46 120.378 20.1H117.048C116.848 19.28 116.408 18.64 115.728 18.18C115.048 17.72 114.248 17.49 113.328 17.49C112.548 17.49 111.828 17.69 111.168 18.09C110.508 18.47 109.978 19.04 109.578 19.8C109.178 20.54 108.978 21.46 108.978 22.56C108.978 23.66 109.178 24.59 109.578 25.35C109.978 26.09 110.508 26.66 111.168 27.06C111.828 27.46 112.548 27.66 113.328 27.66C114.248 27.66 115.048 27.43 115.728 26.97C116.408 26.51 116.848 25.86 117.048 25.02H120.378C120.038 26.62 119.238 27.91 117.978 28.89C116.718 29.87 115.168 30.36 113.328 30.36ZM130.786 30.36C129.366 30.36 128.086 30.04 126.946 29.4C125.826 28.74 124.936 27.83 124.276 26.67C123.616 25.49 123.286 24.12 123.286 22.56C123.286 21 123.616 19.64 124.276 18.48C124.956 17.3 125.866 16.39 127.006 15.75C128.146 15.09 129.416 14.76 130.816 14.76C132.236 14.76 133.506 15.09 134.626 15.75C135.766 16.39 136.666 17.3 137.326 18.48C138.006 19.64 138.346 21 138.346 22.56C138.346 24.12 138.006 25.49 137.326 26.67C136.666 27.83 135.766 28.74 134.626 29.4C133.486 30.04 132.206 30.36 130.786 30.36ZM130.786 27.63C131.546 27.63 132.246 27.44 132.886 27.06C133.546 26.68 134.076 26.12 134.476 25.38C134.876 24.62 135.076 23.68 135.076 22.56C135.076 21.44 134.876 20.51 134.476 19.77C134.096 19.01 133.576 18.44 132.916 18.06C132.276 17.68 131.576 17.49 130.816 17.49C130.056 17.49 129.346 17.68 128.686 18.06C128.046 18.44 127.526 19.01 127.126 19.77C126.726 20.51 126.526 21.44 126.526 22.56C126.526 23.68 126.726 24.62 127.126 25.38C127.526 26.12 128.046 26.68 128.686 27.06C129.326 27.44 130.026 27.63 130.786 27.63ZM141.785 30V15.12H144.605L144.845 17.73C145.305 16.81 145.975 16.09 146.855 15.57C147.755 15.03 148.785 14.76 149.945 14.76C151.745 14.76 153.155 15.32 154.175 16.44C155.215 17.56 155.735 19.23 155.735 21.45V30H152.585V21.78C152.585 18.9 151.405 17.46 149.045 17.46C147.865 17.46 146.885 17.88 146.105 18.72C145.345 19.56 144.965 20.76 144.965 22.32V30H141.785ZM167.159 30V9H174.509C176.149 9 177.509 9.28 178.589 9.84C179.669 10.38 180.469 11.13 180.989 12.09C181.529 13.03 181.799 14.1 181.799 15.3C181.799 16.44 181.539 17.49 181.019 18.45C180.519 19.39 179.729 20.14 178.649 20.7C177.569 21.26 176.189 21.54 174.509 21.54H170.339V30H167.159ZM170.339 18.93H174.359C175.859 18.93 176.929 18.61 177.569 17.97C178.229 17.31 178.559 16.42 178.559 15.3C178.559 14.14 178.229 13.24 177.569 12.6C176.929 11.94 175.859 11.61 174.359 11.61H170.339V18.93ZM184.823 30V15.12H187.673L187.943 17.94C188.463 16.96 189.183 16.19 190.103 15.63C191.043 15.05 192.173 14.76 193.493 14.76V18.09H192.623C191.743 18.09 190.953 18.24 190.253 18.54C189.573 18.82 189.023 19.31 188.603 20.01C188.203 20.69 188.003 21.64 188.003 22.86V30H184.823ZM202.769 30.36C201.349 30.36 200.069 30.04 198.929 29.4C197.809 28.74 196.919 27.83 196.259 26.67C195.599 25.49 195.269 24.12 195.269 22.56C195.269 21 195.599 19.64 196.259 18.48C196.939 17.3 197.849 16.39 198.989 15.75C200.129 15.09 201.399 14.76 202.799 14.76C204.219 14.76 205.489 15.09 206.609 15.75C207.749 16.39 208.649 17.3 209.309 18.48C209.989 19.64 210.329 21 210.329 22.56C210.329 24.12 209.989 25.49 209.309 26.67C208.649 27.83 207.749 28.74 206.609 29.4C205.469 30.04 204.189 30.36 202.769 30.36ZM202.769 27.63C203.529 27.63 204.229 27.44 204.869 27.06C205.529 26.68 206.059 26.12 206.459 25.38C206.859 24.62 207.059 23.68 207.059 22.56C207.059 21.44 206.859 20.51 206.459 19.77C206.079 19.01 205.559 18.44 204.899 18.06C204.259 17.68 203.559 17.49 202.799 17.49C202.039 17.49 201.329 17.68 200.669 18.06C200.029 18.44 199.509 19.01 199.109 19.77C198.709 20.51 198.509 21.44 198.509 22.56C198.509 23.68 198.709 24.62 199.109 25.38C199.509 26.12 200.029 26.68 200.669 27.06C201.309 27.44 202.009 27.63 202.769 27.63ZM219.067 25.44C218.287 25.44 217.567 25.35 216.907 25.17L215.617 26.43C215.837 26.57 216.107 26.69 216.427 26.79C216.747 26.89 217.197 26.98 217.777 27.06C218.357 27.14 219.147 27.22 220.147 27.3C222.127 27.48 223.557 27.96 224.437 28.74C225.317 29.5 225.757 30.52 225.757 31.8C225.757 32.68 225.517 33.51 225.037 34.29C224.577 35.09 223.847 35.73 222.847 36.21C221.867 36.71 220.607 36.96 219.067 36.96C216.987 36.96 215.297 36.56 213.997 35.76C212.717 34.98 212.077 33.79 212.077 32.19C212.077 31.57 212.237 30.95 212.557 30.33C212.897 29.73 213.427 29.16 214.147 28.62C213.727 28.44 213.357 28.25 213.037 28.05C212.737 27.83 212.467 27.61 212.227 27.39V26.67L214.807 24.03C213.647 23.03 213.067 21.72 213.067 20.1C213.067 19.12 213.297 18.23 213.757 17.43C214.237 16.61 214.927 15.96 215.827 15.48C216.727 15 217.807 14.76 219.067 14.76C219.907 14.76 220.687 14.88 221.407 15.12H226.957V17.22L224.317 17.37C224.797 18.19 225.037 19.1 225.037 20.1C225.037 21.1 224.797 22 224.317 22.8C223.857 23.6 223.177 24.24 222.277 24.72C221.397 25.2 220.327 25.44 219.067 25.44ZM219.067 22.95C219.987 22.95 220.727 22.71 221.287 22.23C221.867 21.73 222.157 21.03 222.157 20.13C222.157 19.21 221.867 18.51 221.287 18.03C220.727 17.55 219.987 17.31 219.067 17.31C218.127 17.31 217.367 17.55 216.787 18.03C216.227 18.51 215.947 19.21 215.947 20.13C215.947 21.03 216.227 21.73 216.787 22.23C217.367 22.71 218.127 22.95 219.067 22.95ZM215.077 31.89C215.077 32.75 215.457 33.39 216.217 33.81C216.977 34.25 217.927 34.47 219.067 34.47C220.167 34.47 221.057 34.23 221.737 33.75C222.417 33.29 222.757 32.67 222.757 31.89C222.757 31.31 222.527 30.81 222.067 30.39C221.607 29.99 220.737 29.74 219.457 29.64C218.497 29.58 217.647 29.49 216.907 29.37C216.207 29.75 215.727 30.16 215.467 30.6C215.207 31.04 215.077 31.47 215.077 31.89ZM229.793 30V15.12H232.643L232.913 17.94C233.433 16.96 234.153 16.19 235.073 15.63C236.013 15.05 237.143 14.76 238.463 14.76V18.09H237.593C236.713 18.09 235.923 18.24 235.223 18.54C234.543 18.82 233.993 19.31 233.573 20.01C233.173 20.69 232.973 21.64 232.973 22.86V30H229.793ZM246.23 30.36C244.97 30.36 243.93 30.15 243.11 29.73C242.29 29.31 241.68 28.76 241.28 28.08C240.88 27.38 240.68 26.62 240.68 25.8C240.68 24.36 241.24 23.22 242.36 22.38C243.48 21.54 245.08 21.12 247.16 21.12H251.06V20.85C251.06 19.69 250.74 18.82 250.1 18.24C249.48 17.66 248.67 17.37 247.67 17.37C246.79 17.37 246.02 17.59 245.36 18.03C244.72 18.45 244.33 19.08 244.19 19.92H241.01C241.11 18.84 241.47 17.92 242.09 17.16C242.73 16.38 243.53 15.79 244.49 15.39C245.47 14.97 246.54 14.76 247.7 14.76C249.78 14.76 251.39 15.31 252.53 16.41C253.67 17.49 254.24 18.97 254.24 20.85V30H251.48L251.21 27.45C250.79 28.27 250.18 28.96 249.38 29.52C248.58 30.08 247.53 30.36 246.23 30.36ZM246.86 27.78C247.72 27.78 248.44 27.58 249.02 27.18C249.62 26.76 250.08 26.21 250.4 25.53C250.74 24.85 250.95 24.1 251.03 23.28H247.49C246.23 23.28 245.33 23.5 244.79 23.94C244.27 24.38 244.01 24.93 244.01 25.59C244.01 26.27 244.26 26.81 244.76 27.21C245.28 27.59 245.98 27.78 246.86 27.78ZM257.948 30V15.12H260.768L261.038 17.22C261.518 16.46 262.148 15.86 262.928 15.42C263.728 14.98 264.648 14.76 265.688 14.76C268.048 14.76 269.688 15.69 270.608 17.55C271.148 16.69 271.868 16.01 272.768 15.51C273.688 15.01 274.678 14.76 275.738 14.76C277.598 14.76 279.058 15.32 280.118 16.44C281.178 17.56 281.708 19.23 281.708 21.45V30H278.528V21.78C278.528 18.9 277.428 17.46 275.228 17.46C274.108 17.46 273.188 17.88 272.467 18.72C271.768 19.56 271.418 20.76 271.418 22.32V30H268.238V21.78C268.238 18.9 267.128 17.46 264.908 17.46C263.808 17.46 262.898 17.88 262.178 18.72C261.478 19.56 261.128 20.76 261.128 22.32V30H257.948Z" fill="url(#paint0_linear_313_334)"/>
<path d="M317.5 13L306 24.5V28.5H310L321.5 17L317.5 13ZM324.172 10.328C323.067 9.22302 321.277 9.22302 320.172 10.328L319 11.5L323 15.5L324.172 14.328C325.276 13.224 325.276 11.433 324.172 10.328Z" fill="white"/>
<defs>
<linearGradient id="paint0_linear_313_334" x1="-15.6947" y1="15.0849" x2="467.992" y2="34.7959" gradientUnits="userSpaceOnUse">
<stop stop-color="#3940DE"/>
<stop offset="0.677083" stop-color="#8F00FF"/>
<stop offset="1" stop-color="#9539DE"/>
</linearGradient>
</defs>
</svg>
