<svg width="26" height="26" viewBox="0 0 26 26" fill="none" xmlns="http://www.w3.org/2000/svg">
<path d="M20.9332 0.899902H18.6665V7.4999C18.6665 8.1071 18.1588 8.5999 17.5332 8.5999H7.3332C6.7076 8.5999 6.19987 8.1071 6.19987 7.4999V0.899902H2.79987C1.54754 0.899902 0.533203 1.8844 0.533203 3.0999V22.8999C0.533203 24.1154 1.54754 25.0999 2.79987 25.0999H23.1999C24.4522 25.0999 25.4665 24.1154 25.4665 22.8999V5.2999L20.9332 0.899902ZM20.9332 22.8999H5.06654V16.2999C5.06654 15.0844 6.08087 14.0999 7.3332 14.0999H18.6665C19.9189 14.0999 20.9332 15.0844 20.9332 16.2999V22.8999Z" fill="white"/>
</svg>
