<svg width="454" height="342" viewBox="0 0 454 342" fill="none" xmlns="http://www.w3.org/2000/svg">
<g clip-path="url(#clip0_205_443)">
<path opacity="0.18" d="M19.2525 155.664C25.4938 165.298 33.3979 171.969 36.4101 184.133C39.4947 196.512 38.5789 210.012 34.8438 222.151C30.1447 237.457 21.8309 251.933 20.8791 267.913C19.0717 298.153 45.2058 324.406 74.2317 333.112C107.667 343.216 141.501 332.571 174.997 336.834C211.758 341.506 251.616 343.541 288.57 340.699C320.656 338.219 357.61 335.942 384.299 316.156C429.145 282.894 447.652 240.288 452.158 186.433C453.785 167.032 440.314 149.992 433.988 131.566C424.349 103.591 431.133 71.112 417.421 44.8589C409.059 28.8542 393.793 17.1608 377.045 10.4169C360.297 3.67299 342.103 1.28854 324.03 0.385335C299.173 -0.818933 273.918 0.578018 250.05 7.61094C236.94 11.5007 224.301 17.0765 210.963 19.8343C188.07 24.5429 174.527 13.6082 153.803 8.40576C130.801 2.62527 106.716 -0.0241142 83.1961 4.17878C49.182 10.2001 16.4812 32.3707 5.76973 65.1749C-3.20671 92.6443 3.46839 129.627 18.3247 154.194C18.638 154.688 18.9392 155.182 19.2525 155.664Z" fill="#5039DE"/>
<path d="M387.299 264.722C401.646 264.722 413.276 253.098 413.276 238.758C413.276 224.419 401.646 212.794 387.299 212.794C372.952 212.794 361.321 224.419 361.321 238.758C361.321 253.098 372.952 264.722 387.299 264.722Z" fill="#F8C244"/>
<path d="M387.311 260.917C399.542 260.917 409.457 251.007 409.457 238.782C409.457 226.558 399.542 216.648 387.311 216.648C375.08 216.648 365.165 226.558 365.165 238.782C365.165 251.007 375.08 260.917 387.311 260.917Z" fill="#E8A825"/>
<path d="M376.949 248.308L379.19 245.55C377.711 244.358 376.599 242.771 375.985 240.974L378.118 239.673C378.666 241.371 379.69 242.876 381.07 244.009C383.034 245.586 385.238 245.526 386.492 244.009C387.745 242.491 387.395 240.721 386.046 238.264C384.154 234.905 383.443 232.243 385.371 229.835C387.299 227.426 390.191 227.161 393.058 228.787L395.287 226.029L396.974 227.402L394.841 230.039C396.069 231.066 397.021 232.382 397.613 233.869L395.456 235.157C394.924 233.695 393.994 232.41 392.769 231.448C390.673 229.738 388.865 230.364 387.95 231.448C386.745 232.869 387.227 234.399 388.805 237.301C390.685 240.721 390.962 243.322 388.998 245.731C388.032 246.888 386.675 247.649 385.185 247.871C383.694 248.093 382.174 247.76 380.913 246.935L378.648 249.741L376.949 248.308Z" fill="#F8C244"/>
<path d="M103.547 298.803C86.6782 298.562 73.1473 292.782 73.2437 285.929C73.2437 285.171 72.6774 280.859 73.0027 280.173C75.6655 274.404 88.9314 273.73 103.896 273.935C118.62 274.152 130.982 273.935 133.741 279.619C134.151 280.438 134.211 285.977 134.199 286.844C134.115 293.673 120.379 299.044 103.547 298.803Z" fill="#E8A825"/>
<path d="M133.978 281.081C134.077 274.218 120.515 268.459 103.688 268.218C86.8603 267.977 73.1393 273.346 73.0411 280.209C72.9428 287.072 86.5044 292.831 103.332 293.072C120.159 293.312 133.88 287.944 133.978 281.081Z" fill="#F8C244"/>
<path d="M129.472 281.016C129.556 275.171 118 270.266 103.661 270.06C89.3224 269.855 77.6306 274.428 77.5469 280.273C77.4632 286.119 89.0193 291.024 103.358 291.229C117.697 291.434 129.389 286.862 129.472 281.016Z" fill="#E8A825"/>
<path d="M87.1361 279.39L91.2809 279.462C91.3632 278.921 91.5748 278.407 91.8978 277.965C92.2208 277.523 92.6457 277.165 93.1365 276.921L95.8957 277.355C95.4219 277.58 95.0099 277.917 94.6951 278.337C94.3803 278.756 94.172 279.246 94.0883 279.763C94.0883 280.968 95.7631 281.799 98.1006 281.823C99.0077 281.895 99.9197 281.769 100.773 281.453C101.626 281.137 102.4 280.638 103.041 279.992C103.955 279.037 105.074 278.302 106.314 277.841C107.553 277.38 108.881 277.206 110.198 277.331C113.62 277.331 116.222 278.403 116.813 279.956L120.957 280.016V281.052L116.957 280.98C116.897 281.432 116.734 281.864 116.479 282.242C116.223 282.62 115.884 282.934 115.487 283.159L112.776 282.702C113.163 282.486 113.494 282.184 113.743 281.818C113.992 281.452 114.152 281.033 114.21 280.594C114.21 279.318 112.342 278.788 110.68 278.764C109.791 278.719 108.904 278.876 108.086 279.225C107.267 279.573 106.539 280.103 105.957 280.775C104.209 282.485 102.053 283.316 98.3416 283.316C95.0763 283.316 91.9798 282.304 91.3653 280.558H87.0759L87.1361 279.39Z" fill="#F8C244"/>
<path d="M117.728 292.95C100.86 292.709 87.3289 286.929 87.4253 280.089C87.4253 279.318 86.859 275.007 87.1843 274.32C89.835 268.552 103.113 267.889 118.078 268.082C132.802 268.299 145.164 268.082 147.923 273.778C148.333 274.585 148.393 280.125 148.381 281.004C148.308 287.82 134.561 293.191 117.728 292.95Z" fill="#E8A825"/>
<path d="M148.147 275.23C148.245 268.367 134.683 262.608 117.856 262.367C101.029 262.127 87.3076 267.495 87.2093 274.358C87.111 281.221 100.673 286.98 117.5 287.221C134.327 287.461 148.048 282.093 148.147 275.23Z" fill="#F8C244"/>
<path d="M143.641 275.165C143.724 269.32 132.168 264.415 117.829 264.21C103.491 264.005 91.7989 268.577 91.7152 274.423C91.6315 280.268 103.188 285.173 117.526 285.378C131.865 285.584 143.557 281.011 143.641 275.165Z" fill="#E8A825"/>
<path d="M101.318 273.549L105.475 273.61C105.557 273.068 105.768 272.555 106.091 272.112C106.414 271.67 106.839 271.312 107.33 271.069L110.089 271.502C109.615 271.727 109.203 272.064 108.889 272.484C108.574 272.903 108.366 273.393 108.282 273.911C108.282 275.115 109.945 275.946 112.282 275.97C113.191 276.043 114.105 275.918 114.961 275.602C115.816 275.285 116.592 274.786 117.234 274.14C118.15 273.187 119.27 272.453 120.509 271.992C121.748 271.531 123.075 271.356 124.391 271.478C127.813 271.478 130.416 272.55 130.994 274.103H135.151V275.151L131.151 275.091C131.087 275.54 130.921 275.969 130.666 276.344C130.411 276.72 130.074 277.033 129.681 277.259L126.97 276.801C127.357 276.587 127.687 276.285 127.934 275.918C128.182 275.552 128.338 275.132 128.392 274.693C128.392 273.417 126.524 272.887 124.873 272.863C123.984 272.815 123.095 272.973 122.276 273.324C121.457 273.675 120.729 274.209 120.15 274.886C118.403 276.584 116.234 277.427 112.523 277.427C109.258 277.427 106.173 276.404 105.559 274.669L101.269 274.597L101.318 273.549Z" fill="#F8C244"/>
<path d="M115.246 154.941C145.465 154.941 169.985 162.167 169.985 170.994C169.971 171.881 169.735 172.751 169.298 173.523C165.141 181.182 142.525 187.035 115.234 187.035C87.9434 187.035 65.2914 181.182 61.1587 173.523C60.7215 172.751 60.4853 171.881 60.4719 170.994C60.4719 162.119 85.0155 154.941 115.246 154.941Z" fill="url(#paint0_linear_205_443)"/>
<path d="M115.222 160.011C142.513 160.011 165.153 165.864 169.286 173.523C165.129 181.182 142.513 187.035 115.222 187.035C87.9314 187.035 65.2794 181.182 61.1466 173.523C65.2914 165.864 87.9193 160.011 115.222 160.011Z" fill="url(#paint1_linear_205_443)"/>
<path opacity="0.19" d="M258.93 320.263C328.801 320.263 385.443 309.032 385.443 295.178C385.443 281.324 328.801 270.093 258.93 270.093C189.058 270.093 132.416 281.324 132.416 295.178C132.416 309.032 189.058 320.263 258.93 320.263Z" fill="url(#paint2_linear_205_443)"/>
<path d="M153.128 274.067L164.394 220.598L206.565 236.687L198.131 282.136C198.023 282.758 197.878 283.373 197.697 283.978C196.357 288.577 193.245 292.456 189.045 294.761C184.844 297.067 179.9 297.611 175.298 296.274L164.454 293.095C160.518 291.927 157.167 289.321 155.068 285.794C152.97 282.268 152.277 278.081 153.128 274.067V274.067Z" fill="#5039DE"/>
<path d="M153.128 274.067L164.044 222.284L175.105 226.535L164.454 293.095C160.517 291.93 157.164 289.324 155.065 285.797C152.965 282.27 152.274 278.081 153.128 274.067Z" fill="url(#paint3_linear_205_443)"/>
<path d="M276.376 269.792L276.473 215.13L321.054 222.139L322.114 268.359V270.214C321.76 275.01 319.515 279.469 315.873 282.612C312.231 285.755 307.49 287.325 302.691 286.977L291.389 286.11C287.283 285.801 283.447 283.944 280.659 280.914C277.871 277.884 276.34 273.908 276.376 269.792V269.792Z" fill="#5039DE"/>
<path d="M275.846 241.191C275.846 241.191 276.184 258.231 276.352 269.792C276.533 282.593 288.702 285.568 288.702 285.568L288.016 251.005L275.846 241.191Z" fill="url(#paint4_linear_205_443)"/>
<path d="M259.532 66.1265C324.705 66.1265 378.455 105.169 386.323 155.616C378.455 206.074 324.657 245.117 259.532 245.117C194.408 245.117 140.645 206.074 132.777 155.616C140.645 105.229 194.36 66.1265 259.532 66.1265Z" fill="#5039DE"/>
<path d="M363.358 202.474C364.563 201.185 365.647 199.872 366.743 198.511C365.659 199.86 364.526 201.173 363.358 202.474ZM363.358 202.474C364.563 201.185 365.647 199.872 366.743 198.511C365.659 199.86 364.526 201.173 363.358 202.474Z" fill="#5039DE"/>
<path d="M387.299 168.417C387.299 203.1 365.731 233.748 332.753 252.246C331.223 253.113 329.681 253.944 328.103 254.739C324.889 256.344 321.584 257.87 318.186 259.315C313.073 261.425 307.843 263.242 302.523 264.758C288.522 268.746 274.03 270.753 259.472 270.719C188.937 270.719 131.753 224.957 131.753 168.357C131.741 164.071 132.067 159.79 132.729 155.555C132.922 156.76 133.139 157.964 133.392 159.168C133.151 157.964 132.934 156.76 132.741 155.555C140.609 105.109 194.323 66.0662 259.496 66.0662C324.669 66.0662 378.443 105.229 386.311 155.616C386.971 159.851 387.301 164.131 387.299 168.417V168.417Z" fill="#5039DE"/>
<path d="M145.899 161.83C145.995 162.444 146.104 163.034 146.2 163.672C146.079 163.058 145.983 162.468 145.887 161.83C145.225 166.064 144.898 170.345 144.911 174.631C144.911 210.109 167.466 241.359 201.721 259.712C160.225 242.853 131.838 208.29 131.838 168.465C131.825 164.179 132.151 159.899 132.814 155.664C133.006 156.868 133.223 158.072 133.476 159.277C133.235 158.072 133.018 156.868 132.826 155.664C140.694 105.217 194.408 66.1746 259.58 66.1746C284.339 65.9948 308.759 71.931 330.669 83.4559C312.246 76.0282 292.554 72.253 272.69 72.3405C207.469 72.2923 153.755 111.335 145.899 161.83Z" fill="url(#paint5_linear_205_443)"/>
<path opacity="0.19" d="M173.949 249.018C205.73 249.018 231.494 223.268 231.494 191.503C231.494 159.738 205.73 133.987 173.949 133.987C142.167 133.987 116.403 159.738 116.403 191.503C116.403 223.268 142.167 249.018 173.949 249.018Z" fill="url(#paint6_linear_205_443)"/>
<path d="M101.318 132.301C80.7381 114.719 78.0874 81.9624 101.318 79.9995C124.548 78.0365 130.44 100.123 130.44 100.123C124.042 104.278 101.318 132.325 101.318 132.301Z" fill="#5039DE"/>
<path d="M101.318 132.493C80.7381 114.911 78.0874 82.1551 101.318 80.1921C124.548 78.2291 130.44 100.315 130.44 100.315C124.042 104.47 101.318 132.518 101.318 132.493Z" fill="url(#paint7_linear_205_443)"/>
<path d="M98.4018 128.447C84.0636 116.164 82.2442 93.3428 98.4018 91.9699C114.559 90.597 118.692 106 118.692 106C114.234 108.842 98.4018 128.423 98.4018 128.447Z" fill="#5039DE"/>
<path d="M98.4018 128.447C84.0636 116.164 82.2442 93.3428 98.4018 91.9699C114.559 90.597 118.692 106 118.692 106C114.234 108.842 98.4018 128.423 98.4018 128.447Z" fill="url(#paint8_linear_205_443)"/>
<path d="M131.934 155.892C136.874 187.649 159.996 214.902 192.697 230.702L203.336 218.502L214.445 212.734C214.288 213.204 213.782 233.869 215.108 238.758C229.193 243.271 243.91 245.507 258.701 245.382C323.885 245.382 377.624 206.303 385.491 155.88C386.152 160.116 386.482 164.396 386.48 168.682C386.48 225.174 329.247 270.984 258.761 270.984C188.275 270.984 131.042 225.222 131.042 168.682C131.002 164.402 131.3 160.125 131.934 155.892V155.892Z" fill="url(#paint9_linear_205_443)"/>
<path d="M281.606 121.017C281.523 120.843 281.473 120.655 281.461 120.463C281.437 120.295 281.437 120.125 281.461 119.957L281.606 121.017Z" fill="url(#paint10_linear_205_443)"/>
<path d="M315.993 137.299L315.825 136.239C315.906 136.406 315.959 136.585 315.981 136.769C316.003 136.944 316.007 137.122 315.993 137.299Z" fill="url(#paint11_linear_205_443)"/>
<path d="M323.102 186.072L322.825 184.229C323.018 184.499 323.138 184.814 323.175 185.144C323.211 185.455 323.186 185.77 323.102 186.072V186.072Z" fill="url(#paint12_linear_205_443)"/>
<path d="M326.633 210.41L326.331 208.29C326.563 208.587 326.712 208.94 326.765 209.314C326.806 209.684 326.761 210.059 326.633 210.41V210.41Z" fill="url(#paint13_linear_205_443)"/>
<path d="M330.247 234.736L329.91 232.327C330.199 232.638 330.378 233.036 330.416 233.459C330.487 233.892 330.429 234.336 330.247 234.736V234.736Z" fill="url(#paint14_linear_205_443)"/>
<path d="M333.97 257.701C334.034 258.168 333.955 258.642 333.741 259.062L333.368 256.473C333.703 256.802 333.915 257.235 333.97 257.701V257.701Z" fill="url(#paint15_linear_205_443)"/>
<path d="M330.247 234.736L329.898 232.387L326.633 210.41L326.319 208.29L323.09 186.071L322.813 184.229L319.524 161.685C319.584 161.444 319.584 161.191 319.524 160.95C319.499 160.687 319.416 160.432 319.283 160.204L315.945 137.323L315.789 136.275L312.343 112.683V112.551L310.764 101.616C310.72 101.344 310.623 101.084 310.478 100.85C310.333 100.616 310.143 100.413 309.919 100.253C309.695 100.093 309.441 99.9784 309.172 99.9168C308.904 99.8552 308.626 99.8474 308.354 99.8939C308.235 99.9092 308.118 99.9375 308.005 99.9782C307.363 100.146 306.802 100.536 306.42 101.078C306.039 101.621 305.862 102.28 305.92 102.941L307.125 111.527L285.943 116.922L284.353 106.084C284.309 105.812 284.212 105.551 284.067 105.316C283.922 105.082 283.732 104.878 283.508 104.717C283.284 104.556 283.031 104.44 282.762 104.377C282.494 104.314 282.215 104.305 281.943 104.35L281.582 104.446C280.941 104.614 280.381 105.005 280.002 105.547C279.622 106.09 279.448 106.749 279.509 107.409L281.353 119.981L281.509 121.041L284.955 144.657L302.535 264.758C307.856 263.268 313.086 261.47 318.198 259.375L307.21 262.181L304.342 242.515L325.536 237.12L328.103 254.715C329.681 253.92 331.223 253.089 332.753 252.222L330.247 234.736ZM286.727 121.535L307.933 116.139L310.788 135.733L289.582 141.128L286.727 121.535ZM290.257 145.752L311.451 140.345L314.319 159.927L293.125 165.31L290.257 145.752ZM293.787 169.934L314.993 164.551L317.837 184.132L296.595 189.528L293.787 169.934ZM297.33 194.152L318.524 188.745L321.379 208.326L300.125 213.721L297.33 194.152ZM303.716 237.915L300.848 218.346L322.054 212.951L324.91 232.532L303.716 237.915Z" fill="url(#paint16_linear_205_443)"/>
<path d="M337.573 281.883C337.633 282.387 337.531 282.897 337.284 283.34L336.886 280.582C337.269 280.915 337.514 281.379 337.573 281.883Z" fill="url(#paint17_linear_205_443)"/>
<path d="M138.669 99.2075C184.672 99.2075 221.964 135.54 221.964 180.399C221.951 201.249 213.783 221.269 199.203 236.181C189.737 245.898 178.064 253.189 165.177 257.435C152.289 261.681 138.567 262.756 125.175 260.569C111.783 258.382 99.1165 252.998 88.2508 244.874C77.3852 236.75 68.6412 226.125 62.7611 213.902C57.9025 203.427 55.3901 192.018 55.3993 180.472C55.4234 135.613 92.7148 99.2075 138.669 99.2075Z" fill="#5039DE"/>
<path d="M221.735 173.872C213.469 137.503 180.19 110.323 140.404 110.323C94.4016 110.323 57.1102 146.68 57.1102 191.539C57.1102 193.719 57.1945 195.898 57.3753 198.078C56.0701 192.313 55.4154 186.419 55.4234 180.508C55.4234 135.649 92.775 99.304 138.705 99.304C182.419 99.2679 218.277 132.072 221.735 173.872Z" fill="url(#paint18_linear_205_443)"/>
<path d="M121.186 170.669C124.527 170.669 127.235 167.941 127.235 164.575C127.235 161.21 124.527 158.482 121.186 158.482C117.846 158.482 115.138 161.21 115.138 164.575C115.138 167.941 117.846 170.669 121.186 170.669Z" fill="#5039DE"/>
<path d="M82.184 165.599C85.5245 165.599 88.2326 162.871 88.2326 159.505C88.2326 156.14 85.5245 153.412 82.184 153.412C78.8435 153.412 76.1354 156.14 76.1354 159.505C76.1354 162.871 78.8435 165.599 82.184 165.599Z" fill="#5039DE"/>
<path d="M121.186 170.669C124.527 170.669 127.235 167.941 127.235 164.575C127.235 161.21 124.527 158.482 121.186 158.482C117.846 158.482 115.138 161.21 115.138 164.575C115.138 167.941 117.846 170.669 121.186 170.669Z" fill="url(#paint19_linear_205_443)"/>
<path d="M82.184 165.599C85.5245 165.599 88.2326 162.871 88.2326 159.505C88.2326 156.14 85.5245 153.412 82.184 153.412C78.8435 153.412 76.1354 156.14 76.1354 159.505C76.1354 162.871 78.8435 165.599 82.184 165.599Z" fill="url(#paint20_linear_205_443)"/>
<path d="M81.449 175.077C94.0884 177.485 102.812 187.649 100.92 197.837C99.0284 208.025 87.2566 214.348 74.6173 211.999C72.1086 211.531 69.6761 210.72 67.3879 209.591L73.8341 174.667C76.3794 174.466 78.9401 174.604 81.449 175.077V175.077Z" fill="#5039DE"/>
<path d="M81.449 175.077C94.0884 177.485 102.812 187.649 100.92 197.837C99.0284 208.025 87.2566 214.348 74.6173 211.999C72.1086 211.531 69.6761 210.72 67.3879 209.591L73.8341 174.667C76.3794 174.466 78.9401 174.604 81.449 175.077V175.077Z" fill="url(#paint21_linear_205_443)"/>
<path d="M80.2811 193.896C82.0594 184.221 79.352 175.616 74.2339 174.676C69.1158 173.736 63.5251 180.818 61.7468 190.493C59.9684 200.167 62.6759 208.772 67.794 209.712C72.9121 210.652 78.5028 203.571 80.2811 193.896Z" fill="#5039DE"/>
<path d="M80.2811 193.896C82.0594 184.221 79.352 175.616 74.2339 174.676C69.1158 173.736 63.5251 180.818 61.7468 190.493C59.9684 200.167 62.6759 208.772 67.794 209.712C72.9121 210.652 78.5028 203.571 80.2811 193.896Z" fill="url(#paint22_linear_205_443)"/>
<path d="M74.6655 185.349C75.3282 185.541 75.0872 188.444 74.1112 191.852C73.1353 195.26 71.8099 197.873 71.1351 197.644C70.4604 197.416 70.7255 194.549 71.6894 191.141C72.6533 187.733 74.0028 185.156 74.6655 185.349Z" fill="url(#paint23_linear_205_443)"/>
<path d="M146.176 234.928C192.89 227.053 199.251 236.229 199.251 236.229C189.782 245.955 178.104 253.252 165.208 257.5C152.313 261.749 138.582 262.822 125.182 260.63C111.783 258.439 99.111 253.046 88.2435 244.91C77.376 236.775 68.6342 226.138 62.7612 213.902L62.6768 212.409C62.6768 212.409 99.4742 242.804 146.176 234.928Z" fill="url(#paint24_linear_205_443)"/>
<path d="M203.842 151.172C224.434 133.602 227.084 100.845 203.842 98.8825C180.6 96.9196 174.732 119.006 174.732 119.006C181.13 123.161 203.842 151.208 203.842 151.172Z" fill="#5039DE"/>
<path d="M203.071 151.172C223.65 133.602 226.301 100.845 203.071 98.8825C179.841 96.9196 173.949 119.006 173.949 119.006C180.347 123.161 203.071 151.208 203.071 151.172Z" fill="url(#paint25_linear_205_443)"/>
<path d="M197.709 144.38C212.047 132.108 213.867 109.287 197.709 107.914C181.551 106.541 177.419 121.932 177.419 121.932C181.889 124.846 197.709 144.367 197.709 144.38Z" fill="#5039DE"/>
<path d="M197.709 144.38C212.047 132.108 213.867 109.287 197.709 107.914C181.551 106.541 177.419 121.932 177.419 121.932C181.889 124.846 197.709 144.367 197.709 144.38Z" fill="url(#paint26_linear_205_443)"/>
<path d="M265.183 74.3876C291.992 72.8703 301.98 77.0009 301.98 77.0009L319.259 83.8773C315.352 82.672 311.349 81.8057 307.294 81.2881C290.992 78.9639 259.954 78.6026 225.289 99.2437L219.361 96.5943L213.337 93.9329C213.337 93.9329 231.181 76.3265 265.183 74.3876Z" fill="#25233A"/>
<path d="M265.183 74.3876C291.992 72.8703 301.98 77.0009 301.98 77.0009L319.259 83.8773C315.352 82.672 311.349 81.8057 307.294 81.2881L298.92 78.4822C298.92 78.4822 256.845 72.6294 233.747 86.635L219.289 96.5943L213.373 93.9329C213.373 93.9329 231.181 76.3265 265.183 74.3876Z" fill="#5039DE"/>
<path d="M265.183 74.3876C291.992 72.8703 301.98 77.0009 301.98 77.0009L319.259 83.8773C315.352 82.672 311.349 81.8057 307.294 81.2881L298.92 78.4822C298.92 78.4822 256.845 72.6294 233.747 86.635L219.289 96.5943L213.373 93.9329C213.373 93.9329 231.181 76.3265 265.183 74.3876Z" fill="url(#paint27_linear_205_443)"/>
<path d="M213.746 291.71L215.12 237.072L259.532 245.117V291.373C259.546 291.968 259.518 292.564 259.448 293.155C259.005 297.925 256.684 302.324 252.997 305.384C249.309 308.444 244.556 309.915 239.784 309.473H239.663L228.362 308.341C224.272 307.931 220.49 305.987 217.778 302.901C215.066 299.815 213.625 295.816 213.746 291.71Z" fill="#5039DE"/>
<path d="M326.452 279.667L327.657 229.353L327.753 225.054L372.165 189.407V279.33C372.179 279.933 372.151 280.537 372.081 281.136C371.618 285.924 369.27 290.332 365.556 293.39C361.841 296.447 357.063 297.905 352.273 297.442L340.983 296.322C336.908 295.884 333.148 293.926 330.454 290.839C327.761 287.751 326.331 283.762 326.452 279.667Z" fill="#5039DE"/>
<path d="M326.44 279.667L327.645 229.353C327.645 229.353 331.259 227.402 334.802 233.652C338.344 239.902 340.995 296.274 340.995 296.274C336.923 295.845 333.163 293.897 330.465 290.819C327.766 287.74 326.329 283.758 326.44 279.667Z" fill="url(#paint28_linear_205_443)"/>
<path d="M213.794 291.734L215.108 238.746L226.747 240.89L228.362 308.329C224.287 307.908 220.522 305.965 217.821 302.887C215.12 299.81 213.682 295.826 213.794 291.734Z" fill="url(#paint29_linear_205_443)"/>
<path d="M398.095 154.074C397.067 154.044 396.062 153.76 395.171 153.247C394.279 152.734 393.529 152.009 392.986 151.136C390.287 147.137 389.926 140.719 391.781 135.649C388.986 133.999 385.419 132.493 383.094 133.782C380.419 135.251 379.816 140.116 379.804 141.875C379.804 142.513 379.551 143.126 379.099 143.578C378.647 144.029 378.034 144.283 377.395 144.283C376.756 144.283 376.143 144.029 375.691 143.578C375.239 143.126 374.985 142.513 374.985 141.875C374.985 140.947 375.142 132.698 380.756 129.579C384.214 127.664 388.697 128.279 394.082 131.434C397.203 127.58 401.999 126.617 407.24 128.676C407.537 128.784 407.81 128.95 408.044 129.164C408.277 129.378 408.466 129.636 408.6 129.922C408.734 130.209 408.809 130.52 408.823 130.836C408.837 131.152 408.788 131.468 408.68 131.765C408.571 132.062 408.405 132.335 408.191 132.568C407.977 132.802 407.72 132.991 407.433 133.124C407.146 133.258 406.835 133.334 406.519 133.347C406.202 133.361 405.887 133.312 405.589 133.204H405.445C402.264 131.927 399.854 132.265 398.083 134.228C405.167 139.888 405.167 145.451 404.758 147.764C404.58 149.229 403.969 150.609 403.004 151.727C402.038 152.844 400.761 153.649 399.336 154.038C398.924 154.092 398.509 154.104 398.095 154.074ZM395.854 138.599C394.998 142.14 395.48 146.222 396.986 148.426C397.408 149.064 397.842 149.329 398.275 149.245C398.75 149.036 399.159 148.701 399.456 148.277C399.754 147.852 399.929 147.354 399.962 146.836C400.131 145.789 400.264 142.561 395.854 138.599Z" fill="#5039DE"/>
<path d="M292.914 58.2651C295.213 44.1109 285.596 30.774 271.435 28.4764C257.273 26.1789 243.929 35.7907 241.63 49.9449C239.332 64.0992 248.948 77.436 263.11 79.7336C277.272 82.0312 290.615 72.4194 292.914 58.2651Z" fill="#F8C244"/>
<path d="M267.255 76.2423C279.486 76.2423 289.401 66.3323 289.401 54.1078C289.401 41.8833 279.486 31.9734 267.255 31.9734C255.025 31.9734 245.109 41.8833 245.109 54.1078C245.109 66.3323 255.025 76.2423 267.255 76.2423Z" fill="#E8A825"/>
<path d="M268.255 63.5732C270.515 65.4616 273.061 66.978 275.798 68.0652C279.581 69.3658 286.811 71.2083 286.811 71.2083L289.413 67.6918L268.255 63.5732Z" fill="url(#paint30_linear_205_443)"/>
<path d="M256.917 63.6577L259.159 60.8999C257.689 59.6988 256.58 58.1151 255.954 56.3237L258.086 55.0231C258.639 56.722 259.667 58.2266 261.05 59.3585C263.002 60.9361 265.207 60.8758 266.472 59.3585C267.737 57.8411 267.376 56.0708 266.026 53.6021C264.123 50.2542 263.424 47.5807 265.34 45.2324C267.255 42.8841 270.159 42.5589 273.027 44.1847L275.244 41.4028L276.943 42.7757L274.822 45.401C276.054 46.4263 277.011 47.7426 277.605 49.2306L275.449 50.5191C274.909 49.0607 273.98 47.7779 272.762 46.81C270.653 45.0999 268.846 45.7262 267.942 46.81C266.798 48.231 267.231 49.7604 268.81 52.6627C270.689 56.0829 270.954 58.6841 268.99 61.0926C268.029 62.2507 266.674 63.0138 265.184 63.236C263.695 63.4581 262.176 63.1238 260.918 62.2969L258.616 65.1389L256.917 63.6577Z" fill="#F8C244"/>
<path d="M276.135 62.8628C275.272 61.7396 274.529 60.5287 273.918 59.25C273.328 57.7567 273.196 60.5626 273.533 61.4056C273.87 62.2486 268.713 57.7928 268.448 58.6117C268.183 59.4306 270.858 61.4056 270.858 61.4056C270.858 61.4056 268.099 59.4668 267.593 59.7558C267.087 60.0448 270.003 62.3811 270.003 62.3811C270.003 62.3811 266.954 60.7674 266.954 61.0684C267.824 61.9542 268.772 62.7603 269.786 63.477C269.786 63.477 268.051 62.9712 267.798 62.9712C267.545 62.9712 267.629 63.5733 269.701 64.2838L275.003 66.1264L276.135 62.8628Z" fill="#F9C6D6"/>
<path d="M282.268 106.806L341.031 312.796" stroke="white" stroke-width="4.31001" stroke-linecap="round" stroke-linejoin="round"/>
<path d="M307.993 102.339L366.743 308.329" stroke="white" stroke-width="4.31001" stroke-linecap="round" stroke-linejoin="round"/>
<path d="M285.955 119.969L311.126 113.31" stroke="white" stroke-width="4.31001" stroke-linecap="round" stroke-linejoin="round"/>
<path d="M292.944 144.223L318.114 137.552" stroke="white" stroke-width="4.31001" stroke-linecap="round" stroke-linejoin="round"/>
<path d="M299.932 168.465L325.102 161.805" stroke="white" stroke-width="4.31001" stroke-linecap="round" stroke-linejoin="round"/>
<path d="M306.921 192.719L332.091 186.059" stroke="white" stroke-width="4.31001" stroke-linecap="round" stroke-linejoin="round"/>
<path d="M313.909 216.961L339.067 210.301" stroke="white" stroke-width="4.31001" stroke-linecap="round" stroke-linejoin="round"/>
<path d="M320.897 241.215L346.055 234.555" stroke="white" stroke-width="4.31001" stroke-linecap="round" stroke-linejoin="round"/>
<path d="M327.886 265.469L353.044 258.797" stroke="white" stroke-width="4.31001" stroke-linecap="round" stroke-linejoin="round"/>
<path d="M334.874 289.711L360.032 283.051" stroke="white" stroke-width="4.31001" stroke-linecap="round" stroke-linejoin="round"/>
<path d="M299.559 113.791C299.586 114.049 299.558 114.31 299.475 114.555C299.391 114.8 299.255 115.025 299.077 115.212C298.885 115.344 298.667 115.43 298.438 115.465C297.839 115.584 297.228 115.624 296.619 115.586C295.477 115.498 294.342 115.337 293.221 115.104L291.281 114.731C291.161 114.723 291.044 114.691 290.936 114.637C290.829 114.584 290.733 114.509 290.654 114.418C290.596 114.297 290.575 114.161 290.594 114.028C290.614 113.895 290.672 113.77 290.763 113.671C291.083 113.296 291.499 113.017 291.968 112.864C293.12 112.391 294.309 112.013 295.522 111.732C295.724 111.707 295.916 111.628 296.076 111.503C296.329 111.299 296.378 110.937 296.534 110.66C296.7 110.419 296.934 110.233 297.208 110.127C297.481 110.022 297.78 110.002 298.065 110.07C298.619 110.179 299.414 110.552 299.547 111.166C299.653 112.038 299.657 112.919 299.559 113.791Z" fill="#F9C6D6"/>
<path d="M293.341 111.961C293.537 111.915 293.74 111.918 293.934 111.971C294.127 112.023 294.305 112.123 294.45 112.262C294.775 112.732 294.365 113.466 294.739 113.9C294.978 114.087 295.279 114.178 295.582 114.153H297.715C298.285 114.175 298.855 114.13 299.414 114.02C299.544 113.984 299.681 113.984 299.812 114.02C299.907 114.045 299.991 114.099 300.054 114.175C300.117 114.25 300.154 114.344 300.161 114.442C300.187 114.634 300.158 114.831 300.077 115.008C299.944 115.394 299.749 115.757 299.498 116.079C299.428 116.178 299.338 116.26 299.233 116.32C299.11 116.344 298.983 116.344 298.86 116.32H295.076C294.209 116.26 293.329 116.128 292.462 116.055C291.197 116.055 289.942 115.839 288.751 115.417C288.597 115.363 288.456 115.279 288.336 115.169C288.216 115.06 288.119 114.927 288.052 114.779C288.011 114.644 288.004 114.501 288.032 114.362C288.059 114.223 288.12 114.094 288.208 113.984C288.376 113.76 288.589 113.575 288.835 113.442C289.524 113.009 290.276 112.684 291.064 112.479C291.81 112.252 292.571 112.079 293.341 111.961Z" fill="#565056"/>
<path d="M319.632 134.842V134.986C319.56 136.684 317.319 136.721 316.102 136.66C314.959 136.584 313.823 136.423 312.704 136.179L310.776 135.805C310.654 135.801 310.533 135.771 310.423 135.717C310.313 135.663 310.216 135.587 310.138 135.492C310.085 135.371 310.068 135.237 310.09 135.107C310.111 134.977 310.169 134.856 310.258 134.758C310.579 134.382 310.995 134.099 311.463 133.939C312.511 133.517 313.572 133.228 314.644 132.903C315.716 132.578 314.8 131.301 314.644 130.615C314.595 130.475 314.595 130.322 314.644 130.181C314.754 130.034 314.911 129.928 315.09 129.88C315.646 129.696 316.227 129.594 316.813 129.579C316.933 129.563 317.055 129.584 317.162 129.64C317.254 129.71 317.321 129.806 317.355 129.916L319.198 133.842C319.404 134.146 319.551 134.485 319.632 134.842Z" fill="#F9C6D6"/>
<path d="M318.813 84.9973C318.813 84.9973 320.186 92.7287 317.355 98.5212C315.864 101.639 314.198 104.671 312.367 107.601C312.367 107.601 318.271 113.972 318.271 122.053C318.166 124.863 318.218 127.678 318.427 130.483L314.885 132.277L306.029 107.638C306.029 107.638 305.499 104.133 306.029 102.953C306.559 101.773 311.113 88.3693 311.113 88.3693L318.813 84.9973Z" fill="#C517F1"/>
<path d="M304.764 47.8818C304.636 48.3433 304.454 48.788 304.222 49.2065C304.025 49.3745 303.879 49.5943 303.8 49.8409C303.722 50.0876 303.715 50.3512 303.779 50.602C303.843 50.8527 303.976 51.0805 304.162 51.2596C304.349 51.4386 304.583 51.5618 304.836 51.615C305.18 51.7376 305.53 51.8421 305.884 51.9281C306.113 51.9593 306.331 52.0417 306.523 52.169C306.619 52.2544 306.697 52.358 306.753 52.4737C306.809 52.5895 306.841 52.7151 306.848 52.8434C306.849 53.5217 306.714 54.1933 306.451 54.8184C306.311 55.1289 306.239 55.4654 306.239 55.8059C306.239 56.1463 306.311 56.4829 306.451 56.7934C307.234 58.0819 308.619 57.1065 309.403 56.4321C309.857 56.0088 310.225 55.5018 310.487 54.9388C311.405 53.15 311.785 51.1343 311.583 49.1342C311.475 47.8513 311.062 46.6128 310.379 45.5214C309.836 44.6784 308.668 43.2935 307.523 43.9318C306.957 44.2569 306.704 44.9554 306.149 45.2926C305.595 45.6298 305.198 45.6178 304.944 46.0272C304.691 46.4367 304.848 47.0629 304.788 47.5205C304.798 47.6415 304.79 47.7633 304.764 47.8818Z" fill="#F9C6D6"/>
<path d="M300.474 85.3585C297.37 85.8854 294.303 86.6135 291.293 87.5382C290.4 87.7286 289.571 88.1431 288.883 88.7425C288.434 89.3138 288.125 89.9818 287.98 90.6934C287.578 91.9773 287.454 93.3322 287.618 94.6675C287.883 95.8718 295.45 109.781 296.052 110.72C296.129 110.855 296.232 110.974 296.354 111.07C296.511 111.161 296.69 111.207 296.872 111.202C297.727 111.298 299.016 110.492 299.715 110.985C299.378 108.577 299.522 108.408 299.125 106.59C298.727 104.771 298.161 102.977 297.836 101.171C297.719 100.265 297.542 99.3673 297.305 98.485C296.888 97.1986 296.09 96.069 295.016 95.2456L302.932 96.7148C303.824 96.8952 304.725 97.0278 305.631 97.1122C306.989 97.2248 308.356 97.1803 309.704 96.9797C312.487 96.5462 314.632 94.2099 315.897 91.8375C316.599 90.5497 317.064 89.1466 317.271 87.6948C317.355 87.019 317.355 86.3354 317.271 85.6596C317.158 85.0541 317.013 84.4552 316.837 83.8652C315.463 84.8527 313.222 84.3108 311.62 84.3229C309.366 84.3328 307.113 84.4574 304.872 84.6962C303.426 84.9129 301.944 85.1177 300.474 85.3585Z" fill="#C517F1"/>
<path d="M309.198 55.1434C307.354 54.7506 305.43 55.106 303.848 56.1313C302.266 57.1566 301.157 58.7679 300.764 60.6107C300.62 61.3036 300.58 62.0136 300.643 62.7182C300.776 65.1267 301.956 67.2463 302.607 69.5223C302.99 71.0255 303.26 72.5552 303.414 74.0986C303.824 77.3019 304.149 80.8304 302.306 83.4798C301.682 84.142 301.223 84.9426 300.968 85.8161C300.619 88.4414 304.21 89.176 306.029 89.6577C309.003 90.5475 312.059 91.1405 315.15 91.428C316.281 91.5121 317.417 91.5121 318.548 91.428C318.787 91.4158 319.022 91.3671 319.247 91.2834C319.509 91.153 319.727 90.9477 319.873 90.6934C320.933 89.0796 320.295 86.9481 320.307 85.0213C320.307 83.7086 320.656 82.4321 320.717 81.1315C320.668 79.767 320.441 78.4148 320.042 77.1092C319.813 75.9893 319.909 74.797 319.692 73.653C319.07 70.6883 318.229 67.774 317.174 64.9341C316.599 63.1441 315.861 61.4107 314.969 59.7557C313.98 57.8178 312.331 56.2972 310.318 55.4685C309.956 55.3246 309.581 55.2157 309.198 55.1434Z" fill="white"/>
<path d="M307.728 62.8629C303.298 66.7388 297.711 69.0421 291.835 69.4141C285.749 69.6938 279.68 68.5688 274.099 66.1264L276.136 62.8629C276.136 62.8629 288.606 63.9226 290.727 63.3807C293.257 62.7424 304.535 55.7697 304.535 55.7697C304.535 55.7697 310.583 55.1796 307.728 62.8629Z" fill="white"/>
<path d="M313.198 132.746C313.393 132.7 313.597 132.704 313.79 132.756C313.984 132.809 314.161 132.909 314.306 133.048C314.632 133.517 314.21 134.252 314.596 134.685C314.835 134.873 315.136 134.963 315.439 134.938H317.596C318.165 134.967 318.736 134.922 319.295 134.806C319.425 134.77 319.562 134.77 319.692 134.806C319.787 134.831 319.872 134.885 319.935 134.96C319.998 135.036 320.035 135.129 320.042 135.227C320.068 135.42 320.039 135.616 319.957 135.793C319.825 136.184 319.63 136.55 319.379 136.877C319.309 136.972 319.218 137.05 319.114 137.106C318.995 137.154 318.869 137.179 318.741 137.178C317.475 137.178 316.21 137.178 314.957 137.118C314.078 137.118 313.21 136.925 312.343 136.853C311.077 136.864 309.82 136.648 308.631 136.215C308.478 136.161 308.337 136.077 308.217 135.967C308.097 135.857 308 135.725 307.933 135.577C307.892 135.443 307.885 135.302 307.912 135.165C307.94 135.029 308 134.901 308.089 134.794C308.259 134.569 308.472 134.381 308.716 134.24C309.405 133.807 310.157 133.482 310.945 133.276C311.682 133.046 312.435 132.869 313.198 132.746Z" fill="#565056"/>
<path d="M306.8 41.7037C306.342 42.0891 306.041 42.4624 306.101 42.7394L307.728 45.2804L309.101 44.4976L308.39 45.8464L309.595 47.3758L310.535 46.4485C310.535 46.4485 307.523 59.8279 310.74 67.3907C313.957 74.9535 313.957 73.942 313.957 73.942C313.957 73.942 318.222 71.2203 320.777 72.4728C323.331 73.7252 324.693 69.4982 324.693 69.4982C324.693 69.4982 320.825 65.1267 320.777 56.2513C320.847 51.9305 319.854 47.6586 317.885 43.8112C317.414 42.9675 316.782 42.2249 316.023 41.6259C315.265 41.0269 314.396 40.5833 313.466 40.3204C312.536 40.0576 311.563 39.9806 310.603 40.094C309.643 40.2074 308.715 40.5088 307.872 40.9812C307.492 41.1854 307.132 41.4275 306.8 41.7037Z" fill="#C517F1"/>
<g filter="url(#filter0_iiif_205_443)">
<path d="M53 182C53 230.601 91.5035 270 139 270C186.496 270 225 230.601 225 182C225 133.399 186.496 94 139 94C91.5035 94 53 133.399 53 182ZM203.064 182C203.064 218.204 174.381 247.553 139 247.553C103.619 247.553 74.9364 218.204 74.9364 182C74.9364 145.796 103.619 116.447 139 116.447C174.381 116.447 203.064 145.796 203.064 182Z" fill="url(#paint31_linear_205_443)"/>
</g>
</g>
<defs>
<filter id="filter0_iiif_205_443" x="-16" y="25" width="310" height="314" filterUnits="userSpaceOnUse" color-interpolation-filters="sRGB">
<feFlood flood-opacity="0" result="BackgroundImageFix"/>
<feBlend mode="normal" in="SourceGraphic" in2="BackgroundImageFix" result="shape"/>
<feColorMatrix in="SourceAlpha" type="matrix" values="0 0 0 0 0 0 0 0 0 0 0 0 0 0 0 0 0 0 127 0" result="hardAlpha"/>
<feOffset dy="2.24585"/>
<feGaussianBlur stdDeviation="1.12292"/>
<feComposite in2="hardAlpha" operator="arithmetic" k2="-1" k3="1"/>
<feColorMatrix type="matrix" values="0 0 0 0 0.894184 0 0 0 0 0.416295 0 0 0 0 0.147483 0 0 0 1 0"/>
<feBlend mode="normal" in2="shape" result="effect1_innerShadow_205_443"/>
<feColorMatrix in="SourceAlpha" type="matrix" values="0 0 0 0 0 0 0 0 0 0 0 0 0 0 0 0 0 0 127 0" result="hardAlpha"/>
<feOffset dy="2.24585"/>
<feGaussianBlur stdDeviation="3.93024"/>
<feComposite in2="hardAlpha" operator="arithmetic" k2="-1" k3="1"/>
<feColorMatrix type="matrix" values="0 0 0 0 0.760521 0 0 0 0 0.964479 0 0 0 0 0.891054 0 0 0 1 0"/>
<feBlend mode="normal" in2="effect1_innerShadow_205_443" result="effect2_innerShadow_205_443"/>
<feColorMatrix in="SourceAlpha" type="matrix" values="0 0 0 0 0 0 0 0 0 0 0 0 0 0 0 0 0 0 127 0" result="hardAlpha"/>
<feOffset dx="2.80731" dy="2.24585"/>
<feGaussianBlur stdDeviation="8.42193"/>
<feComposite in2="hardAlpha" operator="arithmetic" k2="-1" k3="1"/>
<feColorMatrix type="matrix" values="0 0 0 0 0.871076 0 0 0 0 0.34559 0 0 0 0 0.660882 0 0 0 1 0"/>
<feBlend mode="normal" in2="effect2_innerShadow_205_443" result="effect3_innerShadow_205_443"/>
<feGaussianBlur stdDeviation="34.5" result="effect4_foregroundBlur_205_443"/>
</filter>
<linearGradient id="paint0_linear_205_443" x1="114.933" y1="144.368" x2="115.162" y2="165.129" gradientUnits="userSpaceOnUse">
<stop stop-color="#68E1FD"/>
<stop offset="1" stop-color="#68E1FD"/>
</linearGradient>
<linearGradient id="paint1_linear_205_443" x1="169.286" y1="173.523" x2="61.1466" y2="173.523" gradientUnits="userSpaceOnUse">
<stop stop-color="#68E1FD"/>
<stop offset="1" stop-color="#68E1FD"/>
</linearGradient>
<linearGradient id="paint2_linear_205_443" x1="258.918" y1="311.267" x2="258.966" y2="227.209" gradientUnits="userSpaceOnUse">
<stop stop-color="#183866"/>
<stop offset="1" stop-color="#68E1FD"/>
</linearGradient>
<linearGradient id="paint3_linear_205_443" x1="139.308" y1="377.14" x2="172.241" y2="218.809" gradientUnits="userSpaceOnUse">
<stop/>
<stop offset="1" stop-opacity="0"/>
</linearGradient>
<linearGradient id="paint4_linear_205_443" x1="264.689" y1="347.817" x2="285.838" y2="246.148" gradientUnits="userSpaceOnUse">
<stop/>
<stop offset="1" stop-opacity="0"/>
</linearGradient>
<linearGradient id="paint5_linear_205_443" x1="203.697" y1="33.7557" x2="269.445" y2="267.727" gradientUnits="userSpaceOnUse">
<stop stop-color="white" stop-opacity="0"/>
<stop offset="0.54" stop-color="white"/>
</linearGradient>
<linearGradient id="paint6_linear_205_443" x1="163.153" y1="248.007" x2="184.723" y2="134.994" gradientUnits="userSpaceOnUse">
<stop/>
<stop offset="1" stop-opacity="0"/>
</linearGradient>
<linearGradient id="paint7_linear_205_443" x1="106.438" y1="135.468" x2="107.979" y2="90.1273" gradientUnits="userSpaceOnUse">
<stop/>
<stop offset="1" stop-opacity="0"/>
</linearGradient>
<linearGradient id="paint8_linear_205_443" x1="94.9077" y1="146.27" x2="109.135" y2="71.6632" gradientUnits="userSpaceOnUse">
<stop/>
<stop offset="1" stop-opacity="0"/>
</linearGradient>
<linearGradient id="paint9_linear_205_443" x1="278.099" y1="354.585" x2="258.588" y2="166.777" gradientUnits="userSpaceOnUse">
<stop/>
<stop offset="0.07" stop-opacity="0.84"/>
<stop offset="1" stop-opacity="0"/>
</linearGradient>
<linearGradient id="paint10_linear_205_443" x1="282.164" y1="115.176" x2="283.253" y2="164.085" gradientUnits="userSpaceOnUse">
<stop/>
<stop offset="0.07" stop-opacity="0.84"/>
<stop offset="1" stop-opacity="0"/>
</linearGradient>
<linearGradient id="paint11_linear_205_443" x1="316.804" y1="129.122" x2="317.892" y2="178.043" gradientUnits="userSpaceOnUse">
<stop/>
<stop offset="0.07" stop-opacity="0.84"/>
<stop offset="1" stop-opacity="0"/>
</linearGradient>
<linearGradient id="paint12_linear_205_443" x1="325.542" y1="163.335" x2="327.432" y2="248.368" gradientUnits="userSpaceOnUse">
<stop/>
<stop offset="0.07" stop-opacity="0.84"/>
<stop offset="1" stop-opacity="0"/>
</linearGradient>
<linearGradient id="paint13_linear_205_443" x1="330.054" y1="179.291" x2="332.231" y2="277.651" gradientUnits="userSpaceOnUse">
<stop/>
<stop offset="0.07" stop-opacity="0.84"/>
<stop offset="1" stop-opacity="0"/>
</linearGradient>
<linearGradient id="paint14_linear_205_443" x1="334.68" y1="194.959" x2="337.096" y2="303.895" gradientUnits="userSpaceOnUse">
<stop/>
<stop offset="0.07" stop-opacity="0.84"/>
<stop offset="1" stop-opacity="0"/>
</linearGradient>
<linearGradient id="paint15_linear_205_443" x1="332.609" y1="208.929" x2="335.269" y2="328.428" gradientUnits="userSpaceOnUse">
<stop/>
<stop offset="0.07" stop-opacity="0.84"/>
<stop offset="1" stop-opacity="0"/>
</linearGradient>
<linearGradient id="paint16_linear_205_443" x1="315.517" y1="100.111" x2="319.178" y2="265.22" gradientUnits="userSpaceOnUse">
<stop/>
<stop offset="0.07" stop-opacity="0.84"/>
<stop offset="1" stop-opacity="0"/>
</linearGradient>
<linearGradient id="paint17_linear_205_443" x1="335.959" y1="223.765" x2="338.787" y2="351.044" gradientUnits="userSpaceOnUse">
<stop/>
<stop offset="0.07" stop-opacity="0.84"/>
<stop offset="1" stop-opacity="0"/>
</linearGradient>
<linearGradient id="paint18_linear_205_443" x1="138.645" y1="174.474" x2="144.579" y2="6.44268" gradientUnits="userSpaceOnUse">
<stop stop-color="white" stop-opacity="0"/>
<stop offset="0.54" stop-color="white"/>
</linearGradient>
<linearGradient id="paint19_linear_205_443" x1="126.343" y1="153.376" x2="107.009" y2="195.424" gradientUnits="userSpaceOnUse">
<stop/>
<stop offset="1" stop-opacity="0"/>
</linearGradient>
<linearGradient id="paint20_linear_205_443" x1="92.2207" y1="137.696" x2="72.8867" y2="179.745" gradientUnits="userSpaceOnUse">
<stop/>
<stop offset="1" stop-opacity="0"/>
</linearGradient>
<linearGradient id="paint21_linear_205_443" x1="83.8468" y1="213.107" x2="86.3624" y2="151.449" gradientUnits="userSpaceOnUse">
<stop stop-color="white" stop-opacity="0"/>
<stop offset="0.67" stop-color="white"/>
</linearGradient>
<linearGradient id="paint22_linear_205_443" x1="103.876" y1="125.082" x2="53.6075" y2="204.695" gradientUnits="userSpaceOnUse">
<stop/>
<stop offset="1" stop-opacity="0"/>
</linearGradient>
<linearGradient id="paint23_linear_205_443" x1="77.5211" y1="170.163" x2="60.7174" y2="247.818" gradientUnits="userSpaceOnUse">
<stop/>
<stop offset="1" stop-opacity="0"/>
</linearGradient>
<linearGradient id="paint24_linear_205_443" x1="100.486" y1="370.686" x2="133.419" y2="212.354" gradientUnits="userSpaceOnUse">
<stop/>
<stop offset="1" stop-opacity="0"/>
</linearGradient>
<linearGradient id="paint25_linear_205_443" x1="140.886" y1="166.02" x2="212.78" y2="113.539" gradientUnits="userSpaceOnUse">
<stop/>
<stop offset="1" stop-opacity="0"/>
</linearGradient>
<linearGradient id="paint26_linear_205_443" x1="185.491" y1="163.551" x2="199.731" y2="88.9564" gradientUnits="userSpaceOnUse">
<stop/>
<stop offset="1" stop-opacity="0"/>
</linearGradient>
<linearGradient id="paint27_linear_205_443" x1="271.702" y1="59.8883" x2="263.697" y2="103.063" gradientUnits="userSpaceOnUse">
<stop/>
<stop offset="1" stop-opacity="0"/>
</linearGradient>
<linearGradient id="paint28_linear_205_443" x1="306.981" y1="394.061" x2="339.926" y2="235.729" gradientUnits="userSpaceOnUse">
<stop/>
<stop offset="1" stop-opacity="0"/>
</linearGradient>
<linearGradient id="paint29_linear_205_443" x1="196.938" y1="392.627" x2="229.871" y2="234.296" gradientUnits="userSpaceOnUse">
<stop/>
<stop offset="1" stop-opacity="0"/>
</linearGradient>
<linearGradient id="paint30_linear_205_443" x1="284.268" y1="55.6612" x2="276.022" y2="70.8145" gradientUnits="userSpaceOnUse">
<stop/>
<stop offset="1" stop-opacity="0"/>
</linearGradient>
<linearGradient id="paint31_linear_205_443" x1="139" y1="94" x2="139" y2="270" gradientUnits="userSpaceOnUse">
<stop stop-color="#C517F1"/>
<stop offset="0.677083" stop-color="#5AFFFF"/>
<stop offset="1" stop-color="#E91ED5"/>
</linearGradient>
<clipPath id="clip0_205_443">
<rect width="454" height="342" fill="white"/>
</clipPath>
</defs>
</svg>
