<svg width="171" height="29" viewBox="0 0 171 29" fill="none" xmlns="http://www.w3.org/2000/svg">
<path d="M8.34 22L0.57 0.999999H3.96L10.26 18.7L16.59 0.999999H19.95L12.18 22H8.34ZM24.3178 4.3C23.7178 4.3 23.2178 4.12 22.8178 3.76C22.4378 3.38 22.2478 2.91 22.2478 2.35C22.2478 1.79 22.4378 1.33 22.8178 0.969999C23.2178 0.589999 23.7178 0.399999 24.3178 0.399999C24.9178 0.399999 25.4078 0.589999 25.7878 0.969999C26.1878 1.33 26.3878 1.79 26.3878 2.35C26.3878 2.91 26.1878 3.38 25.7878 3.76C25.4078 4.12 24.9178 4.3 24.3178 4.3ZM22.7278 22V7.12H25.9078V22H22.7278ZM37.0657 22.36C35.6057 22.36 34.3057 22.04 33.1657 21.4C32.0457 20.74 31.1657 19.83 30.5257 18.67C29.8857 17.51 29.5657 16.16 29.5657 14.62C29.5657 13.06 29.8757 11.69 30.4957 10.51C31.1357 9.33 32.0157 8.41 33.1357 7.75C34.2757 7.09 35.5957 6.76 37.0957 6.76C38.5557 6.76 39.8257 7.09 40.9057 7.75C41.9857 8.39 42.8257 9.25 43.4257 10.33C44.0257 11.41 44.3257 12.6 44.3257 13.9C44.3257 14.1 44.3157 14.32 44.2957 14.56C44.2957 14.78 44.2857 15.03 44.2657 15.31H32.6857C32.7857 16.75 33.2557 17.85 34.0957 18.61C34.9557 19.35 35.9457 19.72 37.0657 19.72C37.9657 19.72 38.7157 19.52 39.3157 19.12C39.9357 18.7 40.3957 18.14 40.6957 17.44H43.8757C43.4757 18.84 42.6757 20.01 41.4757 20.95C40.2957 21.89 38.8257 22.36 37.0657 22.36ZM37.0657 9.37C36.0057 9.37 35.0657 9.69 34.2457 10.33C33.4257 10.95 32.9257 11.89 32.7457 13.15H41.1457C41.0857 11.99 40.6757 11.07 39.9157 10.39C39.1557 9.71 38.2057 9.37 37.0657 9.37ZM50.0093 22L45.6293 7.12H48.8093L51.6893 18.34L54.9293 7.12H58.4693L61.7093 18.34L64.5893 7.12H67.7693L63.3893 22H60.1193L56.6993 10.3L53.2793 22H50.0093ZM78.0675 22V0.999999H85.2975C86.9575 0.999999 88.3175 1.28 89.3775 1.84C90.4575 2.4 91.2575 3.16 91.7775 4.12C92.2975 5.06 92.5575 6.11 92.5575 7.27C92.5575 8.57 92.2075 9.75 91.5075 10.81C90.8275 11.87 89.7575 12.63 88.2975 13.09L92.7675 22H89.0775L84.9975 13.54H81.2475V22H78.0675ZM81.2475 11.14H85.1175C86.5575 11.14 87.6075 10.79 88.2675 10.09C88.9475 9.39 89.2875 8.48 89.2875 7.36C89.2875 6.24 88.9575 5.35 88.2975 4.69C87.6375 4.01 86.5675 3.67 85.0875 3.67H81.2475V11.14ZM102.251 22.36C100.791 22.36 99.4913 22.04 98.3513 21.4C97.2313 20.74 96.3513 19.83 95.7113 18.67C95.0713 17.51 94.7513 16.16 94.7513 14.62C94.7513 13.06 95.0613 11.69 95.6813 10.51C96.3213 9.33 97.2013 8.41 98.3213 7.75C99.4613 7.09 100.781 6.76 102.281 6.76C103.741 6.76 105.011 7.09 106.091 7.75C107.171 8.39 108.011 9.25 108.611 10.33C109.211 11.41 109.511 12.6 109.511 13.9C109.511 14.1 109.501 14.32 109.481 14.56C109.481 14.78 109.471 15.03 109.451 15.31H97.8713C97.9713 16.75 98.4413 17.85 99.2813 18.61C100.141 19.35 101.131 19.72 102.251 19.72C103.151 19.72 103.901 19.52 104.501 19.12C105.121 18.7 105.581 18.14 105.881 17.44H109.061C108.661 18.84 107.861 20.01 106.661 20.95C105.481 21.89 104.011 22.36 102.251 22.36ZM102.251 9.37C101.191 9.37 100.251 9.69 99.4313 10.33C98.6113 10.95 98.1113 11.89 97.9313 13.15H106.331C106.271 11.99 105.861 11.07 105.101 10.39C104.341 9.71 103.391 9.37 102.251 9.37ZM112.811 28.6V7.12H115.661L115.991 9.43C116.471 8.73 117.131 8.11 117.971 7.57C118.811 7.03 119.891 6.76 121.211 6.76C122.651 6.76 123.921 7.1 125.021 7.78C126.121 8.46 126.981 9.39 127.601 10.57C128.241 11.75 128.561 13.09 128.561 14.59C128.561 16.09 128.241 17.43 127.601 18.61C126.981 19.77 126.121 20.69 125.021 21.37C123.921 22.03 122.641 22.36 121.181 22.36C120.021 22.36 118.991 22.13 118.091 21.67C117.211 21.21 116.511 20.56 115.991 19.72V28.6H112.811ZM120.641 19.6C122.001 19.6 123.121 19.14 124.001 18.22C124.881 17.28 125.321 16.06 125.321 14.56C125.321 13.58 125.121 12.71 124.721 11.95C124.321 11.19 123.771 10.6 123.071 10.18C122.371 9.74 121.561 9.52 120.641 9.52C119.281 9.52 118.161 9.99 117.281 10.93C116.421 11.87 115.991 13.08 115.991 14.56C115.991 16.06 116.421 17.28 117.281 18.22C118.161 19.14 119.281 19.6 120.641 19.6ZM138.96 22.36C137.54 22.36 136.26 22.04 135.12 21.4C134 20.74 133.11 19.83 132.45 18.67C131.79 17.49 131.46 16.12 131.46 14.56C131.46 13 131.79 11.64 132.45 10.48C133.13 9.3 134.04 8.39 135.18 7.75C136.32 7.09 137.59 6.76 138.99 6.76C140.41 6.76 141.68 7.09 142.8 7.75C143.94 8.39 144.84 9.3 145.5 10.48C146.18 11.64 146.52 13 146.52 14.56C146.52 16.12 146.18 17.49 145.5 18.67C144.84 19.83 143.94 20.74 142.8 21.4C141.66 22.04 140.38 22.36 138.96 22.36ZM138.96 19.63C139.72 19.63 140.42 19.44 141.06 19.06C141.72 18.68 142.25 18.12 142.65 17.38C143.05 16.62 143.25 15.68 143.25 14.56C143.25 13.44 143.05 12.51 142.65 11.77C142.27 11.01 141.75 10.44 141.09 10.06C140.45 9.68 139.75 9.49 138.99 9.49C138.23 9.49 137.52 9.68 136.86 10.06C136.22 10.44 135.7 11.01 135.3 11.77C134.9 12.51 134.7 13.44 134.7 14.56C134.7 15.68 134.9 16.62 135.3 17.38C135.7 18.12 136.22 18.68 136.86 19.06C137.5 19.44 138.2 19.63 138.96 19.63ZM149.959 22V7.12H152.809L153.079 9.94C153.599 8.96 154.319 8.19 155.239 7.63C156.179 7.05 157.309 6.76 158.629 6.76V10.09H157.759C156.879 10.09 156.089 10.24 155.389 10.54C154.709 10.82 154.159 11.31 153.739 12.01C153.339 12.69 153.139 13.64 153.139 14.86V22H149.959ZM167.596 22C166.136 22 164.976 21.65 164.116 20.95C163.256 20.23 162.826 18.96 162.826 17.14V9.79H160.276V7.12H162.826L163.216 3.34H166.006V7.12H170.206V9.79H166.006V17.14C166.006 17.96 166.176 18.53 166.516 18.85C166.876 19.15 167.486 19.3 168.346 19.3H170.056V22H167.596Z" fill="url(#paint0_linear_323_877)"/>
<defs>
<linearGradient id="paint0_linear_323_877" x1="-9.50526" y1="7.08491" x2="283.739" y2="14.3224" gradientUnits="userSpaceOnUse">
<stop stop-color="#3940DE"/>
<stop offset="0.677083" stop-color="#8F00FF"/>
<stop offset="1" stop-color="#9539DE"/>
</linearGradient>
</defs>
</svg>
